<svg width="20" height="20" viewBox="0 0 20 20" fill="none" xmlns="http://www.w3.org/2000/svg">
<g id="currency_exchange">
<mask id="mask0_56_170" style="mask-type:alpha" maskUnits="userSpaceOnUse" x="0" y="0" width="20" height="20">
<rect id="Bounding box" width="20" height="20" fill="#D9D9D9"/>
</mask>
<g mask="url(#mask0_56_170)">
<path id="currency_exchange_2" d="M9.9998 19.1666C8.44424 19.1666 7.01369 18.8124 5.70813 18.1041C4.40257 17.3958 3.33313 16.4513 2.4998 15.2708V17.4999H0.83313V12.4999H5.83313V14.1666H3.77063C4.4373 15.1666 5.31577 15.9721 6.40605 16.5833C7.49632 17.1944 8.69424 17.4999 9.9998 17.4999C11.0415 17.4999 12.0172 17.302 12.9269 16.9062C13.8366 16.5103 14.6283 15.9756 15.3019 15.302C15.9755 14.6284 16.5102 13.8367 16.906 12.927C17.3019 12.0173 17.4998 11.0416 17.4998 9.99992H19.1665C19.1665 11.2638 18.9269 12.4513 18.4477 13.5624C17.9685 14.6735 17.3123 15.6458 16.479 16.4791C15.6456 17.3124 14.6734 17.9687 13.5623 18.4478C12.4512 18.927 11.2637 19.1666 9.9998 19.1666ZM0.83313 9.99992C0.83313 8.73603 1.07271 7.54853 1.55188 6.43742C2.03105 5.32631 2.6873 4.35409 3.52063 3.52075C4.35396 2.68742 5.32619 2.03117 6.4373 1.552C7.54841 1.07284 8.73591 0.833252 9.9998 0.833252C11.5554 0.833252 12.9859 1.18742 14.2915 1.89575C15.597 2.60409 16.6665 3.54853 17.4998 4.72909V2.49992H19.1665V7.49992H14.1665V5.83325H16.229C15.5623 4.83325 14.6838 4.0277 13.5935 3.41659C12.5033 2.80547 11.3054 2.49992 9.9998 2.49992C8.95813 2.49992 7.98244 2.69784 7.07271 3.09367C6.16299 3.4895 5.37132 4.02422 4.69771 4.69784C4.0241 5.37145 3.48938 6.16311 3.09355 7.07284C2.69771 7.98256 2.4998 8.95825 2.4998 9.99992H0.83313Z" fill="white"/>
</g>
</g>
</svg>
