<svg width="32" height="32" viewBox="0 0 32 32" fill="none" xmlns="http://www.w3.org/2000/svg">
<rect width="32" height="32" rx="16" fill="#035E5D"/>
<mask id="mask0_56_169" style="mask-type:alpha" maskUnits="userSpaceOnUse" x="6" y="6" width="20" height="20">
<rect x="6" y="6" width="20" height="20" fill="#D9D9D9"/>
</mask>
<g mask="url(#mask0_56_169)">
<path d="M15.9998 25.1666C14.4442 25.1666 13.0137 24.8124 11.7081 24.1041C10.4026 23.3958 9.33313 22.4513 8.4998 21.2708V23.4999H6.83313V18.4999H11.8331V20.1666H9.77063C10.4373 21.1666 11.3158 21.9721 12.406 22.5833C13.4963 23.1944 14.6942 23.4999 15.9998 23.4999C17.0415 23.4999 18.0172 23.302 18.9269 22.9062C19.8366 22.5103 20.6283 21.9756 21.3019 21.302C21.9755 20.6284 22.5102 19.8367 22.906 18.927C23.3019 18.0173 23.4998 17.0416 23.4998 15.9999H25.1665C25.1665 17.2638 24.9269 18.4513 24.4477 19.5624C23.9685 20.6735 23.3123 21.6458 22.479 22.4791C21.6456 23.3124 20.6734 23.9687 19.5623 24.4478C18.4512 24.927 17.2637 25.1666 15.9998 25.1666ZM6.83313 15.9999C6.83313 14.736 7.07271 13.5485 7.55188 12.4374C8.03105 11.3263 8.6873 10.3541 9.52063 9.52075C10.354 8.68742 11.3262 8.03117 12.4373 7.552C13.5484 7.07284 14.7359 6.83325 15.9998 6.83325C17.5554 6.83325 18.9859 7.18742 20.2915 7.89575C21.597 8.60409 22.6665 9.54853 23.4998 10.7291V8.49992H25.1665V13.4999H20.1665V11.8333H22.229C21.5623 10.8333 20.6838 10.0277 19.5935 9.41659C18.5033 8.80547 17.3054 8.49992 15.9998 8.49992C14.9581 8.49992 13.9824 8.69784 13.0727 9.09367C12.163 9.4895 11.3713 10.0242 10.6977 10.6978C10.0241 11.3714 9.48938 12.1631 9.09355 13.0728C8.69771 13.9826 8.4998 14.9583 8.4998 15.9999H6.83313Z" fill="white"/>
</g>
</svg>
