<svg width="32" height="32" viewBox="0 0 32 32" fill="none" xmlns="http://www.w3.org/2000/svg">
<g id="heroicons-solid/circle-stack">
<g id="Vector">
<path d="M28 8.5C28 12.0899 22.6274 15 16 15C9.37258 15 4 12.0899 4 8.5C4 4.91015 9.37258 2 16 2C22.6274 2 28 4.91015 28 8.5Z" fill="#035E5D"/>
<path d="M16 17C19.5803 17 22.9207 16.2182 25.4378 14.8548C26.3578 14.3565 27.233 13.7391 27.9663 13.009C27.9886 13.1711 28 13.3348 28 13.5C28 17.0899 22.6274 20 16 20C9.37258 20 4 17.0899 4 13.5C4 13.3348 4.01138 13.1711 4.03372 13.009C4.76697 13.7391 5.64216 14.3565 6.56215 14.8548C9.07932 16.2182 12.4197 17 16 17Z" fill="#035E5D"/>
<path d="M16 22C19.5803 22 22.9207 21.2182 25.4378 19.8548C26.3578 19.3564 27.233 18.7391 27.9663 18.009C27.9886 18.1711 28 18.3348 28 18.5C28 22.0898 22.6274 25 16 25C9.37258 25 4 22.0898 4 18.5C4 18.3348 4.01138 18.1711 4.03372 18.009C4.76697 18.7391 5.64216 19.3564 6.56215 19.8548C9.07932 21.2182 12.4197 22 16 22Z" fill="#035E5D"/>
<path d="M16 27C19.5803 27 22.9207 26.2182 25.4378 24.8548C26.3578 24.3564 27.233 23.7391 27.9663 23.009C27.9886 23.1711 28 23.3348 28 23.5C28 27.0898 22.6274 30 16 30C9.37258 30 4 27.0898 4 23.5C4 23.3348 4.01138 23.1711 4.03372 23.009C4.76697 23.7391 5.64216 24.3564 6.56215 24.8548C9.07932 26.2182 12.4197 27 16 27Z" fill="#035E5D"/>
</g>
</g>
</svg>
