<svg width="96" height="20" viewBox="0 0 96 20" fill="none" xmlns="http://www.w3.org/2000/svg">
<rect y="3.33325" width="32" height="16" fill="#FFBE0A"/>
<rect x="32" y="3.33325" width="32" height="16" fill="white"/>
<rect x="64" y="3.33325" width="32" height="16" fill="#81DC32"/>
<path d="M48.3736 16.3631C51.4924 16.3631 54.0207 13.9753 54.0207 11.0297C54.0207 8.08423 51.4924 5.69641 48.3736 5.69641C45.2548 5.69641 42.7266 8.08423 42.7266 11.0297C42.7266 13.9753 45.2548 16.3631 48.3736 16.3631Z" fill="#428BC1"/>
<path d="M48.3718 15.701C51.1035 15.701 53.3179 13.6097 53.3179 11.0298C53.3179 8.44992 51.1035 6.35852 48.3718 6.35852C45.6402 6.35852 43.4258 8.44992 43.4258 11.0298C43.4258 13.6097 45.6402 15.701 48.3718 15.701Z" fill="white"/>
<path d="M46.5404 7.0297C46.7354 7.0297 46.8934 6.88047 46.8934 6.69637C46.8934 6.51228 46.7354 6.36304 46.5404 6.36304C46.3455 6.36304 46.1875 6.51228 46.1875 6.69637C46.1875 6.88047 46.3455 7.0297 46.5404 7.0297Z" fill="#428BC1"/>
<path d="M45.4115 7.63005C45.6065 7.63005 45.7645 7.48081 45.7645 7.29671C45.7645 7.11262 45.6065 6.96338 45.4115 6.96338C45.2166 6.96338 45.0586 7.11262 45.0586 7.29671C45.0586 7.48081 45.2166 7.63005 45.4115 7.63005Z" fill="#428BC1"/>
<path d="M44.4897 8.49723C44.6846 8.49723 44.8426 8.34799 44.8426 8.1639C44.8426 7.9798 44.6846 7.83057 44.4897 7.83057C44.2947 7.83057 44.1367 7.9798 44.1367 8.1639C44.1367 8.34799 44.2947 8.49723 44.4897 8.49723Z" fill="#428BC1"/>
<path d="M43.8568 9.56376C44.0518 9.56376 44.2098 9.41452 44.2098 9.23043C44.2098 9.04633 44.0518 8.89709 43.8568 8.89709C43.6619 8.89709 43.5039 9.04633 43.5039 9.23043C43.5039 9.41452 43.6619 9.56376 43.8568 9.56376Z" fill="#428BC1"/>
<path d="M43.5053 10.7635C43.7002 10.7635 43.8582 10.6142 43.8582 10.4301C43.8582 10.246 43.7002 10.0968 43.5053 10.0968C43.3104 10.0968 43.1523 10.246 43.1523 10.4301C43.1523 10.6142 43.3104 10.7635 43.5053 10.7635Z" fill="#428BC1"/>
<path d="M43.5053 11.9633C43.7002 11.9633 43.8582 11.8141 43.8582 11.63C43.8582 11.4459 43.7002 11.2966 43.5053 11.2966C43.3104 11.2966 43.1523 11.4459 43.1523 11.63C43.1523 11.8141 43.3104 11.9633 43.5053 11.9633Z" fill="#428BC1"/>
<path d="M43.8568 13.1634C44.0518 13.1634 44.2098 13.0141 44.2098 12.83C44.2098 12.6459 44.0518 12.4967 43.8568 12.4967C43.6619 12.4967 43.5039 12.6459 43.5039 12.83C43.5039 13.0141 43.6619 13.1634 43.8568 13.1634Z" fill="#428BC1"/>
<path d="M44.4897 14.2297C44.6846 14.2297 44.8426 14.0804 44.8426 13.8963C44.8426 13.7122 44.6846 13.563 44.4897 13.563C44.2947 13.563 44.1367 13.7122 44.1367 13.8963C44.1367 14.0804 44.2947 14.2297 44.4897 14.2297Z" fill="#428BC1"/>
<path d="M45.4115 15.0968C45.6065 15.0968 45.7645 14.9476 45.7645 14.7635C45.7645 14.5794 45.6065 14.4302 45.4115 14.4302C45.2166 14.4302 45.0586 14.5794 45.0586 14.7635C45.0586 14.9476 45.2166 15.0968 45.4115 15.0968Z" fill="#428BC1"/>
<path d="M46.5404 15.6965C46.7354 15.6965 46.8934 15.5472 46.8934 15.3631C46.8934 15.179 46.7354 15.0298 46.5404 15.0298C46.3455 15.0298 46.1875 15.179 46.1875 15.3631C46.1875 15.5472 46.3455 15.6965 46.5404 15.6965Z" fill="#428BC1"/>
<path d="M47.7397 15.9632C47.9346 15.9632 48.0926 15.8139 48.0926 15.6298C48.0926 15.4457 47.9346 15.2965 47.7397 15.2965C47.5447 15.2965 47.3867 15.4457 47.3867 15.6298C47.3867 15.8139 47.5447 15.9632 47.7397 15.9632Z" fill="#428BC1"/>
<path d="M48.7305 15.6966C48.7305 15.4966 48.8716 15.3633 49.0128 15.2966C49.2246 15.2966 49.3658 15.43 49.4364 15.5633C49.4364 15.7633 49.2952 15.8966 49.154 15.9633C48.8716 16.03 48.7305 15.8966 48.7305 15.6966Z" fill="#428BC1"/>
<path d="M50.2787 15.6965C50.4736 15.6965 50.6317 15.5472 50.6317 15.3631C50.6317 15.179 50.4736 15.0298 50.2787 15.0298C50.0838 15.0298 49.9258 15.179 49.9258 15.3631C49.9258 15.5472 50.0838 15.6965 50.2787 15.6965Z" fill="#428BC1"/>
<path d="M51.4115 15.0968C51.6065 15.0968 51.7645 14.9476 51.7645 14.7635C51.7645 14.5794 51.6065 14.4302 51.4115 14.4302C51.2166 14.4302 51.0586 14.5794 51.0586 14.7635C51.0586 14.9476 51.2166 15.0968 51.4115 15.0968Z" fill="#428BC1"/>
<path d="M52.3295 14.2303C52.5244 14.2303 52.6824 14.081 52.6824 13.8969C52.6824 13.7128 52.5244 13.5636 52.3295 13.5636C52.1346 13.5636 51.9766 13.7128 51.9766 13.8969C51.9766 14.081 52.1346 14.2303 52.3295 14.2303Z" fill="#428BC1"/>
<path d="M52.9662 13.1634C53.1611 13.1634 53.3192 13.0141 53.3192 12.83C53.3192 12.6459 53.1611 12.4967 52.9662 12.4967C52.7713 12.4967 52.6133 12.6459 52.6133 12.83C52.6133 13.0141 52.7713 13.1634 52.9662 13.1634Z" fill="#428BC1"/>
<path d="M53.3217 11.9632C53.5166 11.9632 53.6746 11.8139 53.6746 11.6298C53.6746 11.4457 53.5166 11.2965 53.3217 11.2965C53.1268 11.2965 52.9688 11.4457 52.9688 11.6298C52.9688 11.8139 53.1268 11.9632 53.3217 11.9632Z" fill="#428BC1"/>
<path d="M53.3181 10.7635C53.1063 10.7635 52.9651 10.6301 52.8945 10.4968C52.8945 10.2968 53.0357 10.1635 53.1769 10.0968C53.3886 10.0968 53.5298 10.2301 53.6004 10.3635C53.671 10.5635 53.5298 10.6968 53.3181 10.7635Z" fill="#428BC1"/>
<path d="M52.9662 9.56376C53.1611 9.56376 53.3192 9.41452 53.3192 9.23043C53.3192 9.04633 53.1611 8.89709 52.9662 8.89709C52.7713 8.89709 52.6133 9.04633 52.6133 9.23043C52.6133 9.41452 52.7713 9.56376 52.9662 9.56376Z" fill="#428BC1"/>
<path d="M52.3295 8.49638C52.5244 8.49638 52.6824 8.34714 52.6824 8.16305C52.6824 7.97895 52.5244 7.82971 52.3295 7.82971C52.1346 7.82971 51.9766 7.97895 51.9766 8.16305C51.9766 8.34714 52.1346 8.49638 52.3295 8.49638Z" fill="#428BC1"/>
<path d="M51.4115 7.63005C51.6065 7.63005 51.7645 7.48081 51.7645 7.29671C51.7645 7.11262 51.6065 6.96338 51.4115 6.96338C51.2166 6.96338 51.0586 7.11262 51.0586 7.29671C51.0586 7.48081 51.2166 7.63005 51.4115 7.63005Z" fill="#428BC1"/>
<path d="M50.6347 6.83005C50.5641 7.03005 50.3523 7.09671 50.1406 7.03005C49.9288 6.96338 49.8582 6.76338 49.9288 6.56338C49.9994 6.36338 50.2112 6.29671 50.4229 6.36338C50.6347 6.49671 50.7053 6.69671 50.6347 6.83005Z" fill="#428BC1"/>
<path d="M49.361 6.43016C49.361 6.63016 49.1492 6.76349 48.9374 6.69683C48.7257 6.69683 48.5845 6.49683 48.6551 6.29683C48.6551 6.09683 48.8668 5.96349 49.0786 6.03016C49.2904 6.09683 49.4316 6.29683 49.361 6.43016Z" fill="#428BC1"/>
<path d="M48.0926 6.36323C48.0926 6.56323 47.9514 6.69657 47.8102 6.76323C47.5985 6.76323 47.4573 6.6299 47.3867 6.49657C47.3867 6.29657 47.5279 6.16323 47.6691 6.09657C47.8808 6.0299 48.0926 6.16323 48.0926 6.36323Z" fill="#428BC1"/>
<path d="M48.3791 12.0304C48.9639 12.0304 49.438 11.5827 49.438 11.0304C49.438 10.4781 48.9639 10.0304 48.3791 10.0304C47.7944 10.0304 47.3203 10.4781 47.3203 11.0304C47.3203 11.5827 47.7944 12.0304 48.3791 12.0304Z" fill="#428BC1"/>
<path d="M48.3755 6.36292L48.2344 9.22958L48.3755 11.0296L48.5873 9.22958L48.3755 6.36292Z" fill="#428BC1"/>
<path d="M47.1055 6.49719L47.7408 9.36386L48.3761 11.0305L48.0937 9.23053L47.1055 6.49719Z" fill="#428BC1"/>
<path d="M45.9023 6.9635L47.3141 9.5635L48.3729 11.0302L47.5965 9.3635L45.9023 6.9635Z" fill="#428BC1"/>
<path d="M44.918 7.69788L46.965 9.89788L48.3768 11.0312L47.1768 9.63121L44.918 7.69788Z" fill="#428BC1"/>
<path d="M44.1367 8.69775L46.6779 10.2978L48.372 11.0311L46.8191 9.96442L44.1367 8.69775Z" fill="#428BC1"/>
<path d="M43.6484 9.82971L46.5426 10.6964L48.3779 11.0297L46.6131 10.4297L43.6484 9.82971Z" fill="#428BC1"/>
<path d="M43.4375 11.0295L46.5434 11.1628L48.3787 11.0295L46.5434 10.8961L43.4375 11.0295Z" fill="#428BC1"/>
<path d="M43.6484 12.2304L46.6131 11.6304L48.3779 11.0304L46.5426 11.3637L43.6484 12.2304Z" fill="#428BC1"/>
<path d="M44.1367 13.3643L46.8191 12.0977L48.372 11.031L46.6779 11.7643L44.1367 13.3643Z" fill="#428BC1"/>
<path d="M44.918 14.2966L47.1768 12.4299L48.3768 11.0299L46.965 12.1632L44.918 14.2966Z" fill="#428BC1"/>
<path d="M45.9023 15.0975L47.5965 12.6309L48.3729 11.0309L47.3141 12.4976L45.9023 15.0975Z" fill="#428BC1"/>
<path d="M47.1055 15.5642L48.0937 12.8309L48.3761 11.0309L47.7408 12.6976L47.1055 15.5642Z" fill="#428BC1"/>
<path d="M48.3755 15.6966L48.5873 12.8299L48.3755 11.0299L48.2344 12.8299L48.3755 15.6966Z" fill="#428BC1"/>
<path d="M49.6495 15.5637L49.0848 12.6971L48.3789 11.0304L48.7318 12.8304L49.6495 15.5637Z" fill="#428BC1"/>
<path d="M50.8495 15.0971L49.5083 12.4971L48.3789 11.0304L49.226 12.6971L50.8495 15.0971Z" fill="#428BC1"/>
<path d="M51.9083 14.2971L49.8613 12.1637L48.3789 11.0304L49.6495 12.4304L51.9083 14.2971Z" fill="#428BC1"/>
<path d="M52.6848 13.3637L50.1436 11.7637L48.3789 11.0304L49.9318 12.0971L52.6848 13.3637Z" fill="#428BC1"/>
<path d="M53.1789 12.2304L50.2848 11.3637L48.3789 11.0304L50.2142 11.6304L53.1789 12.2304Z" fill="#428BC1"/>
<path d="M53.3201 11.0298L50.2848 10.8298L48.3789 11.0298L50.2848 11.1632L53.3201 11.0298Z" fill="#428BC1"/>
<path d="M53.1789 9.82983L50.2142 10.4298L48.3789 11.0298L50.2848 10.6965L53.1789 9.82983Z" fill="#428BC1"/>
<path d="M52.6848 8.69702L49.9318 9.96369L48.3789 11.0304L50.1436 10.297L52.6848 8.69702Z" fill="#428BC1"/>
<path d="M51.9083 7.76343L49.6495 9.63009L48.3789 11.0301L49.8613 9.89676L51.9083 7.76343Z" fill="#428BC1"/>
<path d="M50.8495 6.96338L49.226 9.43005L48.3789 11.03L49.5083 9.56338L50.8495 6.96338Z" fill="#428BC1"/>
<path d="M49.7201 6.49658L48.7318 9.22992L48.3789 11.0299L49.0848 9.36325L49.7201 6.49658Z" fill="#428BC1"/>
<path d="M46.5404 7.0297C46.7354 7.0297 46.8934 6.88047 46.8934 6.69637C46.8934 6.51228 46.7354 6.36304 46.5404 6.36304C46.3455 6.36304 46.1875 6.51228 46.1875 6.69637C46.1875 6.88047 46.3455 7.0297 46.5404 7.0297Z" fill="#428BC1"/>
<path d="M45.4115 7.63005C45.6065 7.63005 45.7645 7.48081 45.7645 7.29671C45.7645 7.11262 45.6065 6.96338 45.4115 6.96338C45.2166 6.96338 45.0586 7.11262 45.0586 7.29671C45.0586 7.48081 45.2166 7.63005 45.4115 7.63005Z" fill="#428BC1"/>
<path d="M44.4897 8.49723C44.6846 8.49723 44.8426 8.34799 44.8426 8.1639C44.8426 7.9798 44.6846 7.83057 44.4897 7.83057C44.2947 7.83057 44.1367 7.9798 44.1367 8.1639C44.1367 8.34799 44.2947 8.49723 44.4897 8.49723Z" fill="#428BC1"/>
<path d="M43.8568 9.56376C44.0518 9.56376 44.2098 9.41452 44.2098 9.23043C44.2098 9.04633 44.0518 8.89709 43.8568 8.89709C43.6619 8.89709 43.5039 9.04633 43.5039 9.23043C43.5039 9.41452 43.6619 9.56376 43.8568 9.56376Z" fill="#428BC1"/>
<path d="M43.5053 10.7635C43.7002 10.7635 43.8582 10.6142 43.8582 10.4301C43.8582 10.246 43.7002 10.0968 43.5053 10.0968C43.3104 10.0968 43.1523 10.246 43.1523 10.4301C43.1523 10.6142 43.3104 10.7635 43.5053 10.7635Z" fill="#428BC1"/>
<path d="M43.5053 11.9633C43.7002 11.9633 43.8582 11.8141 43.8582 11.63C43.8582 11.4459 43.7002 11.2966 43.5053 11.2966C43.3104 11.2966 43.1523 11.4459 43.1523 11.63C43.1523 11.8141 43.3104 11.9633 43.5053 11.9633Z" fill="#428BC1"/>
<path d="M43.8568 13.1634C44.0518 13.1634 44.2098 13.0141 44.2098 12.83C44.2098 12.6459 44.0518 12.4967 43.8568 12.4967C43.6619 12.4967 43.5039 12.6459 43.5039 12.83C43.5039 13.0141 43.6619 13.1634 43.8568 13.1634Z" fill="#428BC1"/>
<path d="M44.4897 14.2297C44.6846 14.2297 44.8426 14.0804 44.8426 13.8963C44.8426 13.7122 44.6846 13.563 44.4897 13.563C44.2947 13.563 44.1367 13.7122 44.1367 13.8963C44.1367 14.0804 44.2947 14.2297 44.4897 14.2297Z" fill="#428BC1"/>
<path d="M45.4115 15.0968C45.6065 15.0968 45.7645 14.9476 45.7645 14.7635C45.7645 14.5794 45.6065 14.4302 45.4115 14.4302C45.2166 14.4302 45.0586 14.5794 45.0586 14.7635C45.0586 14.9476 45.2166 15.0968 45.4115 15.0968Z" fill="#428BC1"/>
<path d="M46.5404 15.6965C46.7354 15.6965 46.8934 15.5472 46.8934 15.3631C46.8934 15.179 46.7354 15.0298 46.5404 15.0298C46.3455 15.0298 46.1875 15.179 46.1875 15.3631C46.1875 15.5472 46.3455 15.6965 46.5404 15.6965Z" fill="#428BC1"/>
<path d="M47.7397 15.9632C47.9346 15.9632 48.0926 15.8139 48.0926 15.6298C48.0926 15.4457 47.9346 15.2965 47.7397 15.2965C47.5447 15.2965 47.3867 15.4457 47.3867 15.6298C47.3867 15.8139 47.5447 15.9632 47.7397 15.9632Z" fill="#428BC1"/>
<path d="M48.7305 15.6966C48.7305 15.4966 48.8716 15.3633 49.0128 15.2966C49.2246 15.2966 49.3658 15.43 49.4364 15.5633C49.4364 15.7633 49.2952 15.8966 49.154 15.9633C48.8716 16.03 48.7305 15.8966 48.7305 15.6966Z" fill="#428BC1"/>
<path d="M50.2787 15.6965C50.4736 15.6965 50.6317 15.5472 50.6317 15.3631C50.6317 15.179 50.4736 15.0298 50.2787 15.0298C50.0838 15.0298 49.9258 15.179 49.9258 15.3631C49.9258 15.5472 50.0838 15.6965 50.2787 15.6965Z" fill="#428BC1"/>
<path d="M51.4115 15.0968C51.6065 15.0968 51.7645 14.9476 51.7645 14.7635C51.7645 14.5794 51.6065 14.4302 51.4115 14.4302C51.2166 14.4302 51.0586 14.5794 51.0586 14.7635C51.0586 14.9476 51.2166 15.0968 51.4115 15.0968Z" fill="#428BC1"/>
<path d="M52.3295 14.2303C52.5244 14.2303 52.6824 14.081 52.6824 13.8969C52.6824 13.7128 52.5244 13.5636 52.3295 13.5636C52.1346 13.5636 51.9766 13.7128 51.9766 13.8969C51.9766 14.081 52.1346 14.2303 52.3295 14.2303Z" fill="#428BC1"/>
<path d="M52.9662 13.1634C53.1611 13.1634 53.3192 13.0141 53.3192 12.83C53.3192 12.6459 53.1611 12.4967 52.9662 12.4967C52.7713 12.4967 52.6133 12.6459 52.6133 12.83C52.6133 13.0141 52.7713 13.1634 52.9662 13.1634Z" fill="#428BC1"/>
<path d="M53.3217 11.9632C53.5166 11.9632 53.6746 11.8139 53.6746 11.6298C53.6746 11.4457 53.5166 11.2965 53.3217 11.2965C53.1268 11.2965 52.9688 11.4457 52.9688 11.6298C52.9688 11.8139 53.1268 11.9632 53.3217 11.9632Z" fill="#428BC1"/>
<path d="M53.3181 10.7635C53.1063 10.7635 52.9651 10.6301 52.8945 10.4968C52.8945 10.2968 53.0357 10.1635 53.1769 10.0968C53.3886 10.0968 53.5298 10.2301 53.6004 10.3635C53.671 10.5635 53.5298 10.6968 53.3181 10.7635Z" fill="#428BC1"/>
<path d="M52.9662 9.56376C53.1611 9.56376 53.3192 9.41452 53.3192 9.23043C53.3192 9.04633 53.1611 8.89709 52.9662 8.89709C52.7713 8.89709 52.6133 9.04633 52.6133 9.23043C52.6133 9.41452 52.7713 9.56376 52.9662 9.56376Z" fill="#428BC1"/>
<path d="M52.3295 8.49638C52.5244 8.49638 52.6824 8.34714 52.6824 8.16305C52.6824 7.97895 52.5244 7.82971 52.3295 7.82971C52.1346 7.82971 51.9766 7.97895 51.9766 8.16305C51.9766 8.34714 52.1346 8.49638 52.3295 8.49638Z" fill="#428BC1"/>
<path d="M51.4115 7.63005C51.6065 7.63005 51.7645 7.48081 51.7645 7.29671C51.7645 7.11262 51.6065 6.96338 51.4115 6.96338C51.2166 6.96338 51.0586 7.11262 51.0586 7.29671C51.0586 7.48081 51.2166 7.63005 51.4115 7.63005Z" fill="#428BC1"/>
<path d="M50.6347 6.83005C50.5641 7.03005 50.3523 7.09671 50.1406 7.03005C49.9288 6.96338 49.8582 6.76338 49.9288 6.56338C49.9994 6.36338 50.2112 6.29671 50.4229 6.36338C50.6347 6.49671 50.7053 6.69671 50.6347 6.83005Z" fill="#428BC1"/>
<path d="M49.361 6.43016C49.361 6.63016 49.1492 6.76349 48.9374 6.69683C48.7257 6.69683 48.5845 6.49683 48.6551 6.29683C48.6551 6.09683 48.8668 5.96349 49.0786 6.03016C49.2904 6.09683 49.4316 6.29683 49.361 6.43016Z" fill="#428BC1"/>
<path d="M48.0926 6.36323C48.0926 6.56323 47.9514 6.69657 47.8102 6.76323C47.5985 6.76323 47.4573 6.6299 47.3867 6.49657C47.3867 6.29657 47.5279 6.16323 47.6691 6.09657C47.8808 6.0299 48.0926 6.16323 48.0926 6.36323Z" fill="#428BC1"/>
<path d="M48.3791 12.0304C48.9639 12.0304 49.438 11.5827 49.438 11.0304C49.438 10.4781 48.9639 10.0304 48.3791 10.0304C47.7944 10.0304 47.3203 10.4781 47.3203 11.0304C47.3203 11.5827 47.7944 12.0304 48.3791 12.0304Z" fill="#428BC1"/>
<path d="M48.3755 6.36292L48.2344 9.22958L48.3755 11.0296L48.5873 9.22958L48.3755 6.36292Z" fill="#428BC1"/>
<path d="M47.1055 6.49719L47.7408 9.36386L48.3761 11.0305L48.0937 9.23053L47.1055 6.49719Z" fill="#428BC1"/>
<path d="M45.9023 6.9635L47.3141 9.5635L48.3729 11.0302L47.5965 9.3635L45.9023 6.9635Z" fill="#428BC1"/>
<path d="M44.918 7.69788L46.965 9.89788L48.3768 11.0312L47.1768 9.63121L44.918 7.69788Z" fill="#428BC1"/>
<path d="M44.1367 8.69775L46.6779 10.2978L48.372 11.0311L46.8191 9.96442L44.1367 8.69775Z" fill="#428BC1"/>
<path d="M43.6484 9.82971L46.5426 10.6964L48.3779 11.0297L46.6131 10.4297L43.6484 9.82971Z" fill="#428BC1"/>
<path d="M43.4375 11.0295L46.5434 11.1628L48.3787 11.0295L46.5434 10.8961L43.4375 11.0295Z" fill="#428BC1"/>
<path d="M43.6484 12.2304L46.6131 11.6304L48.3779 11.0304L46.5426 11.3637L43.6484 12.2304Z" fill="#428BC1"/>
<path d="M44.1367 13.3643L46.8191 12.0977L48.372 11.031L46.6779 11.7643L44.1367 13.3643Z" fill="#428BC1"/>
<path d="M44.918 14.2966L47.1768 12.4299L48.3768 11.0299L46.965 12.1632L44.918 14.2966Z" fill="#428BC1"/>
<path d="M45.9023 15.0975L47.5965 12.6309L48.3729 11.0309L47.3141 12.4976L45.9023 15.0975Z" fill="#428BC1"/>
<path d="M47.1055 15.5642L48.0937 12.8309L48.3761 11.0309L47.7408 12.6976L47.1055 15.5642Z" fill="#428BC1"/>
<path d="M48.3755 15.6966L48.5873 12.8299L48.3755 11.0299L48.2344 12.8299L48.3755 15.6966Z" fill="#428BC1"/>
<path d="M49.6495 15.5637L49.0848 12.6971L48.3789 11.0304L48.7318 12.8304L49.6495 15.5637Z" fill="#428BC1"/>
<path d="M50.8495 15.0971L49.5083 12.4971L48.3789 11.0304L49.226 12.6971L50.8495 15.0971Z" fill="#428BC1"/>
<path d="M51.9083 14.2971L49.8613 12.1637L48.3789 11.0304L49.6495 12.4304L51.9083 14.2971Z" fill="#428BC1"/>
<path d="M52.6848 13.3637L50.1436 11.7637L48.3789 11.0304L49.9318 12.0971L52.6848 13.3637Z" fill="#428BC1"/>
<path d="M53.1789 12.2304L50.2848 11.3637L48.3789 11.0304L50.2142 11.6304L53.1789 12.2304Z" fill="#428BC1"/>
<path d="M53.3201 11.0298L50.2848 10.8298L48.3789 11.0298L50.2848 11.1632L53.3201 11.0298Z" fill="#428BC1"/>
<path d="M53.1789 9.82983L50.2142 10.4298L48.3789 11.0298L50.2848 10.6965L53.1789 9.82983Z" fill="#428BC1"/>
<path d="M52.6848 8.69702L49.9318 9.96369L48.3789 11.0304L50.1436 10.297L52.6848 8.69702Z" fill="#428BC1"/>
<path d="M51.9083 7.76343L49.6495 9.63009L48.3789 11.0301L49.8613 9.89676L51.9083 7.76343Z" fill="#428BC1"/>
<path d="M50.8495 6.96338L49.226 9.43005L48.3789 11.03L49.5083 9.56338L50.8495 6.96338Z" fill="#428BC1"/>
<path d="M49.7201 6.49658L48.7318 9.22992L48.3789 11.0299L49.0848 9.36325L49.7201 6.49658Z" fill="#428BC1"/>
</svg>
