<svg width="72" height="15" viewBox="0 0 72 15" fill="none" xmlns="http://www.w3.org/2000/svg">
<rect y="2.22754" width="24" height="12" fill="#FFBE0A"/>
<rect x="24" y="2.22754" width="24" height="12" fill="white"/>
<rect x="48" y="2.22754" width="24" height="12" fill="#81DC32"/>
<path d="M36.2802 12C38.6193 12 40.5155 10.2091 40.5155 8C40.5155 5.79086 38.6193 4 36.2802 4C33.9411 4 32.0449 5.79086 32.0449 8C32.0449 10.2091 33.9411 12 36.2802 12Z" fill="#428BC1"/>
<path d="M36.2776 11.5035C38.3264 11.5035 39.9872 9.93493 39.9872 8.00003C39.9872 6.06513 38.3264 4.49658 36.2776 4.49658C34.2289 4.49658 32.5681 6.06513 32.5681 8.00003C32.5681 9.93493 34.2289 11.5035 36.2776 11.5035Z" fill="white"/>
<path d="M34.9055 5.00024C35.0517 5.00024 35.1702 4.88832 35.1702 4.75024C35.1702 4.61217 35.0517 4.50024 34.9055 4.50024C34.7593 4.50024 34.6408 4.61217 34.6408 4.75024C34.6408 4.88832 34.7593 5.00024 34.9055 5.00024Z" fill="#428BC1"/>
<path d="M34.059 5.45014C34.2052 5.45014 34.3237 5.33821 34.3237 5.20013C34.3237 5.06206 34.2052 4.95013 34.059 4.95013C33.9128 4.95013 33.7943 5.06206 33.7943 5.20013C33.7943 5.33821 33.9128 5.45014 34.059 5.45014Z" fill="#428BC1"/>
<path d="M33.3674 6.10034C33.5136 6.10034 33.6321 5.98841 33.6321 5.85034C33.6321 5.71227 33.5136 5.60034 33.3674 5.60034C33.2212 5.60034 33.1027 5.71227 33.1027 5.85034C33.1027 5.98841 33.2212 6.10034 33.3674 6.10034Z" fill="#428BC1"/>
<path d="M32.8939 6.90033C33.0401 6.90033 33.1586 6.7884 33.1586 6.65033C33.1586 6.51226 33.0401 6.40033 32.8939 6.40033C32.7477 6.40033 32.6292 6.51226 32.6292 6.65033C32.6292 6.7884 32.7477 6.90033 32.8939 6.90033Z" fill="#428BC1"/>
<path d="M32.6291 7.80032C32.7753 7.80032 32.8939 7.68839 32.8939 7.55032C32.8939 7.41225 32.7753 7.30032 32.6291 7.30032C32.483 7.30032 32.3644 7.41225 32.3644 7.55032C32.3644 7.68839 32.483 7.80032 32.6291 7.80032Z" fill="#428BC1"/>
<path d="M32.6291 8.70032C32.7753 8.70032 32.8939 8.58839 32.8939 8.45032C32.8939 8.31225 32.7753 8.20032 32.6291 8.20032C32.483 8.20032 32.3644 8.31225 32.3644 8.45032C32.3644 8.58839 32.483 8.70032 32.6291 8.70032Z" fill="#428BC1"/>
<path d="M32.8939 9.60031C33.0401 9.60031 33.1586 9.48838 33.1586 9.35031C33.1586 9.21224 33.0401 9.10031 32.8939 9.10031C32.7477 9.10031 32.6292 9.21224 32.6292 9.35031C32.6292 9.48838 32.7477 9.60031 32.8939 9.60031Z" fill="#428BC1"/>
<path d="M33.3674 10.3999C33.5136 10.3999 33.6321 10.288 33.6321 10.1499C33.6321 10.0118 33.5136 9.8999 33.3674 9.8999C33.2212 9.8999 33.1027 10.0118 33.1027 10.1499C33.1027 10.288 33.2212 10.3999 33.3674 10.3999Z" fill="#428BC1"/>
<path d="M34.059 11.0501C34.2052 11.0501 34.3237 10.9382 34.3237 10.8001C34.3237 10.662 34.2052 10.5501 34.059 10.5501C33.9128 10.5501 33.7943 10.662 33.7943 10.8001C33.7943 10.9382 33.9128 11.0501 34.059 11.0501Z" fill="#428BC1"/>
<path d="M34.9055 11.5002C35.0517 11.5002 35.1702 11.3883 35.1702 11.2502C35.1702 11.1122 35.0517 11.0002 34.9055 11.0002C34.7593 11.0002 34.6408 11.1122 34.6408 11.2502C34.6408 11.3883 34.7593 11.5002 34.9055 11.5002Z" fill="#428BC1"/>
<path d="M35.8059 11.7002C35.9521 11.7002 36.0706 11.5883 36.0706 11.4502C36.0706 11.3121 35.9521 11.2002 35.8059 11.2002C35.6597 11.2002 35.5412 11.3121 35.5412 11.4502C35.5412 11.5883 35.6597 11.7002 35.8059 11.7002Z" fill="#428BC1"/>
<path d="M36.548 11.5002C36.548 11.3502 36.6539 11.2502 36.7598 11.2002C36.9186 11.2002 37.0245 11.3002 37.0774 11.4002C37.0774 11.5502 36.9716 11.6502 36.8657 11.7002C36.6539 11.7502 36.548 11.6502 36.548 11.5002Z" fill="#428BC1"/>
<path d="M37.7093 11.4998C37.8555 11.4998 37.9741 11.3879 37.9741 11.2498C37.9741 11.1118 37.8555 10.9998 37.7093 10.9998C37.5632 10.9998 37.4446 11.1118 37.4446 11.2498C37.4446 11.3879 37.5632 11.4998 37.7093 11.4998Z" fill="#428BC1"/>
<path d="M38.559 11.0501C38.7052 11.0501 38.8237 10.9382 38.8237 10.8001C38.8237 10.662 38.7052 10.5501 38.559 10.5501C38.4128 10.5501 38.2943 10.662 38.2943 10.8001C38.2943 10.9382 38.4128 11.0501 38.559 11.0501Z" fill="#428BC1"/>
<path d="M39.2463 10.4001C39.3925 10.4001 39.511 10.2882 39.511 10.1501C39.511 10.0121 39.3925 9.90015 39.2463 9.90015C39.1001 9.90015 38.9816 10.0121 38.9816 10.1501C38.9816 10.2882 39.1001 10.4001 39.2463 10.4001Z" fill="#428BC1"/>
<path d="M39.7258 9.6001C39.872 9.6001 39.9905 9.48817 39.9905 9.3501C39.9905 9.21203 39.872 9.1001 39.7258 9.1001C39.5796 9.1001 39.4611 9.21203 39.4611 9.3501C39.4611 9.48817 39.5796 9.6001 39.7258 9.6001Z" fill="#428BC1"/>
<path d="M39.9905 8.7002C40.1367 8.7002 40.2552 8.58827 40.2552 8.4502C40.2552 8.31212 40.1367 8.2002 39.9905 8.2002C39.8443 8.2002 39.7258 8.31212 39.7258 8.4502C39.7258 8.58827 39.8443 8.7002 39.9905 8.7002Z" fill="#428BC1"/>
<path d="M39.9887 7.80029C39.8299 7.80029 39.724 7.70029 39.6711 7.60029C39.6711 7.45029 39.777 7.35029 39.8828 7.30029C40.0417 7.30029 40.1476 7.40029 40.2005 7.50029C40.2534 7.65029 40.1476 7.75029 39.9887 7.80029Z" fill="#428BC1"/>
<path d="M39.7258 6.90063C39.872 6.90063 39.9905 6.78871 39.9905 6.65063C39.9905 6.51256 39.872 6.40063 39.7258 6.40063C39.5796 6.40063 39.4611 6.51256 39.4611 6.65063C39.4611 6.78871 39.5796 6.90063 39.7258 6.90063Z" fill="#428BC1"/>
<path d="M39.2463 6.1001C39.3925 6.1001 39.511 5.98817 39.511 5.8501C39.511 5.71203 39.3925 5.6001 39.2463 5.6001C39.1001 5.6001 38.9816 5.71203 38.9816 5.8501C38.9816 5.98817 39.1001 6.1001 39.2463 6.1001Z" fill="#428BC1"/>
<path d="M38.559 5.45014C38.7052 5.45014 38.8237 5.33821 38.8237 5.20013C38.8237 5.06206 38.7052 4.95013 38.559 4.95013C38.4128 4.95013 38.2943 5.06206 38.2943 5.20013C38.2943 5.33821 38.4128 5.45014 38.559 5.45014Z" fill="#428BC1"/>
<path d="M37.9762 4.85032C37.9233 5.00032 37.7644 5.05032 37.6056 5.00032C37.4468 4.95032 37.3939 4.80032 37.4468 4.65032C37.4997 4.50032 37.6586 4.45032 37.8174 4.50032C37.9762 4.60032 38.0291 4.75032 37.9762 4.85032Z" fill="#428BC1"/>
<path d="M37.0209 4.55031C37.0209 4.70031 36.8621 4.80031 36.7033 4.75031C36.5444 4.75031 36.4386 4.60031 36.4915 4.45031C36.4915 4.30031 36.6503 4.20031 36.8091 4.25031C36.968 4.30031 37.0738 4.45031 37.0209 4.55031Z" fill="#428BC1"/>
<path d="M36.0706 4.50036C36.0706 4.65036 35.9647 4.75036 35.8588 4.80036C35.7 4.80036 35.5941 4.70036 35.5412 4.60036C35.5412 4.45036 35.6471 4.35036 35.753 4.30036C35.9118 4.25036 36.0706 4.35036 36.0706 4.50036Z" fill="#428BC1"/>
<path d="M36.2845 8.75049C36.7231 8.75049 37.0787 8.4147 37.0787 8.00049C37.0787 7.58627 36.7231 7.25049 36.2845 7.25049C35.846 7.25049 35.4904 7.58627 35.4904 8.00049C35.4904 8.4147 35.846 8.75049 36.2845 8.75049Z" fill="#428BC1"/>
<path d="M36.2827 4.50024L36.1768 6.65024L36.2827 8.00024L36.4415 6.65024L36.2827 4.50024Z" fill="#428BC1"/>
<path d="M35.3283 4.60034L35.8048 6.75034L36.2812 8.00034L36.0695 6.65034L35.3283 4.60034Z" fill="#428BC1"/>
<path d="M34.426 4.9502L35.4848 6.9002L36.2789 8.0002L35.6966 6.7502L34.426 4.9502Z" fill="#428BC1"/>
<path d="M33.6877 5.50073L35.223 7.15073L36.2818 8.00073L35.3818 6.95073L33.6877 5.50073Z" fill="#428BC1"/>
<path d="M33.1027 6.25073L35.0086 7.45073L36.2792 8.00073L35.1145 7.20073L33.1027 6.25073Z" fill="#428BC1"/>
<path d="M32.7355 7.10022L34.9061 7.75022L36.2825 8.00022L34.959 7.55022L32.7355 7.10022Z" fill="#428BC1"/>
<path d="M32.5775 7.9999L34.9069 8.0999L36.2833 7.9999L34.9069 7.8999L32.5775 7.9999Z" fill="#428BC1"/>
<path d="M32.7355 8.90061L34.959 8.45061L36.2825 8.00061L34.9061 8.25061L32.7355 8.90061Z" fill="#428BC1"/>
<path d="M33.1027 9.75073L35.1145 8.80073L36.2792 8.00073L35.0086 8.55073L33.1027 9.75073Z" fill="#428BC1"/>
<path d="M33.6877 10.4502L35.3818 9.05024L36.2818 8.00024L35.223 8.85024L33.6877 10.4502Z" fill="#428BC1"/>
<path d="M34.426 11.0507L35.6966 9.20073L36.2789 8.00073L35.4848 9.10073L34.426 11.0507Z" fill="#428BC1"/>
<path d="M35.3283 11.4007L36.0695 9.35073L36.2812 8.00073L35.8048 9.25073L35.3283 11.4007Z" fill="#428BC1"/>
<path d="M36.2827 11.5002L36.4415 9.35024L36.2827 8.00024L36.1768 9.35024L36.2827 11.5002Z" fill="#428BC1"/>
<path d="M37.2372 11.4006L36.8137 9.25061L36.2842 8.00061L36.5489 9.35061L37.2372 11.4006Z" fill="#428BC1"/>
<path d="M38.1372 11.0506L37.1313 9.10061L36.2842 8.00061L36.9195 9.25061L38.1372 11.0506Z" fill="#428BC1"/>
<path d="M38.9313 10.4506L37.396 8.85061L36.2842 8.00061L37.2372 9.05061L38.9313 10.4506Z" fill="#428BC1"/>
<path d="M39.5137 9.75061L37.6078 8.55061L36.2842 8.00061L37.4489 8.80061L39.5137 9.75061Z" fill="#428BC1"/>
<path d="M39.8842 8.90061L37.7137 8.25061L36.2842 8.00061L37.6607 8.45061L39.8842 8.90061Z" fill="#428BC1"/>
<path d="M39.9901 8.00022L37.7137 7.85022L36.2842 8.00022L37.7137 8.10022L39.9901 8.00022Z" fill="#428BC1"/>
<path d="M39.8842 7.10022L37.6607 7.55022L36.2842 8.00022L37.7137 7.75022L39.8842 7.10022Z" fill="#428BC1"/>
<path d="M39.5137 6.25061L37.4489 7.20061L36.2842 8.00061L37.6078 7.45061L39.5137 6.25061Z" fill="#428BC1"/>
<path d="M38.9313 5.55008L37.2372 6.95008L36.2842 8.00008L37.396 7.15008L38.9313 5.55008Z" fill="#428BC1"/>
<path d="M38.1372 4.95013L36.9195 6.80014L36.2842 8.00014L37.1313 6.90013L38.1372 4.95013Z" fill="#428BC1"/>
<path d="M37.2901 4.60022L36.5489 6.65022L36.2842 8.00022L36.8137 6.75022L37.2901 4.60022Z" fill="#428BC1"/>
<path d="M34.9055 5.00024C35.0517 5.00024 35.1702 4.88832 35.1702 4.75024C35.1702 4.61217 35.0517 4.50024 34.9055 4.50024C34.7593 4.50024 34.6408 4.61217 34.6408 4.75024C34.6408 4.88832 34.7593 5.00024 34.9055 5.00024Z" fill="#428BC1"/>
<path d="M34.059 5.45014C34.2052 5.45014 34.3237 5.33821 34.3237 5.20013C34.3237 5.06206 34.2052 4.95013 34.059 4.95013C33.9128 4.95013 33.7943 5.06206 33.7943 5.20013C33.7943 5.33821 33.9128 5.45014 34.059 5.45014Z" fill="#428BC1"/>
<path d="M33.3674 6.10034C33.5136 6.10034 33.6321 5.98841 33.6321 5.85034C33.6321 5.71227 33.5136 5.60034 33.3674 5.60034C33.2212 5.60034 33.1027 5.71227 33.1027 5.85034C33.1027 5.98841 33.2212 6.10034 33.3674 6.10034Z" fill="#428BC1"/>
<path d="M32.8939 6.90033C33.0401 6.90033 33.1586 6.7884 33.1586 6.65033C33.1586 6.51226 33.0401 6.40033 32.8939 6.40033C32.7477 6.40033 32.6292 6.51226 32.6292 6.65033C32.6292 6.7884 32.7477 6.90033 32.8939 6.90033Z" fill="#428BC1"/>
<path d="M32.6291 7.80032C32.7753 7.80032 32.8939 7.68839 32.8939 7.55032C32.8939 7.41225 32.7753 7.30032 32.6291 7.30032C32.483 7.30032 32.3644 7.41225 32.3644 7.55032C32.3644 7.68839 32.483 7.80032 32.6291 7.80032Z" fill="#428BC1"/>
<path d="M32.6291 8.70032C32.7753 8.70032 32.8939 8.58839 32.8939 8.45032C32.8939 8.31225 32.7753 8.20032 32.6291 8.20032C32.483 8.20032 32.3644 8.31225 32.3644 8.45032C32.3644 8.58839 32.483 8.70032 32.6291 8.70032Z" fill="#428BC1"/>
<path d="M32.8939 9.60031C33.0401 9.60031 33.1586 9.48838 33.1586 9.35031C33.1586 9.21224 33.0401 9.10031 32.8939 9.10031C32.7477 9.10031 32.6292 9.21224 32.6292 9.35031C32.6292 9.48838 32.7477 9.60031 32.8939 9.60031Z" fill="#428BC1"/>
<path d="M33.3674 10.3999C33.5136 10.3999 33.6321 10.288 33.6321 10.1499C33.6321 10.0118 33.5136 9.8999 33.3674 9.8999C33.2212 9.8999 33.1027 10.0118 33.1027 10.1499C33.1027 10.288 33.2212 10.3999 33.3674 10.3999Z" fill="#428BC1"/>
<path d="M34.059 11.0501C34.2052 11.0501 34.3237 10.9382 34.3237 10.8001C34.3237 10.662 34.2052 10.5501 34.059 10.5501C33.9128 10.5501 33.7943 10.662 33.7943 10.8001C33.7943 10.9382 33.9128 11.0501 34.059 11.0501Z" fill="#428BC1"/>
<path d="M34.9055 11.5002C35.0517 11.5002 35.1702 11.3883 35.1702 11.2502C35.1702 11.1122 35.0517 11.0002 34.9055 11.0002C34.7593 11.0002 34.6408 11.1122 34.6408 11.2502C34.6408 11.3883 34.7593 11.5002 34.9055 11.5002Z" fill="#428BC1"/>
<path d="M35.8059 11.7002C35.9521 11.7002 36.0706 11.5883 36.0706 11.4502C36.0706 11.3121 35.9521 11.2002 35.8059 11.2002C35.6597 11.2002 35.5412 11.3121 35.5412 11.4502C35.5412 11.5883 35.6597 11.7002 35.8059 11.7002Z" fill="#428BC1"/>
<path d="M36.548 11.5002C36.548 11.3502 36.6539 11.2502 36.7598 11.2002C36.9186 11.2002 37.0245 11.3002 37.0774 11.4002C37.0774 11.5502 36.9716 11.6502 36.8657 11.7002C36.6539 11.7502 36.548 11.6502 36.548 11.5002Z" fill="#428BC1"/>
<path d="M37.7093 11.4998C37.8555 11.4998 37.9741 11.3879 37.9741 11.2498C37.9741 11.1118 37.8555 10.9998 37.7093 10.9998C37.5632 10.9998 37.4446 11.1118 37.4446 11.2498C37.4446 11.3879 37.5632 11.4998 37.7093 11.4998Z" fill="#428BC1"/>
<path d="M38.559 11.0501C38.7052 11.0501 38.8237 10.9382 38.8237 10.8001C38.8237 10.662 38.7052 10.5501 38.559 10.5501C38.4128 10.5501 38.2943 10.662 38.2943 10.8001C38.2943 10.9382 38.4128 11.0501 38.559 11.0501Z" fill="#428BC1"/>
<path d="M39.2463 10.4001C39.3925 10.4001 39.511 10.2882 39.511 10.1501C39.511 10.0121 39.3925 9.90015 39.2463 9.90015C39.1001 9.90015 38.9816 10.0121 38.9816 10.1501C38.9816 10.2882 39.1001 10.4001 39.2463 10.4001Z" fill="#428BC1"/>
<path d="M39.7258 9.6001C39.872 9.6001 39.9905 9.48817 39.9905 9.3501C39.9905 9.21203 39.872 9.1001 39.7258 9.1001C39.5796 9.1001 39.4611 9.21203 39.4611 9.3501C39.4611 9.48817 39.5796 9.6001 39.7258 9.6001Z" fill="#428BC1"/>
<path d="M39.9905 8.7002C40.1367 8.7002 40.2552 8.58827 40.2552 8.4502C40.2552 8.31212 40.1367 8.2002 39.9905 8.2002C39.8443 8.2002 39.7258 8.31212 39.7258 8.4502C39.7258 8.58827 39.8443 8.7002 39.9905 8.7002Z" fill="#428BC1"/>
<path d="M39.9887 7.80029C39.8299 7.80029 39.724 7.70029 39.6711 7.60029C39.6711 7.45029 39.777 7.35029 39.8828 7.30029C40.0417 7.30029 40.1476 7.40029 40.2005 7.50029C40.2534 7.65029 40.1476 7.75029 39.9887 7.80029Z" fill="#428BC1"/>
<path d="M39.7258 6.90063C39.872 6.90063 39.9905 6.78871 39.9905 6.65063C39.9905 6.51256 39.872 6.40063 39.7258 6.40063C39.5796 6.40063 39.4611 6.51256 39.4611 6.65063C39.4611 6.78871 39.5796 6.90063 39.7258 6.90063Z" fill="#428BC1"/>
<path d="M39.2463 6.1001C39.3925 6.1001 39.511 5.98817 39.511 5.8501C39.511 5.71203 39.3925 5.6001 39.2463 5.6001C39.1001 5.6001 38.9816 5.71203 38.9816 5.8501C38.9816 5.98817 39.1001 6.1001 39.2463 6.1001Z" fill="#428BC1"/>
<path d="M38.559 5.45014C38.7052 5.45014 38.8237 5.33821 38.8237 5.20013C38.8237 5.06206 38.7052 4.95013 38.559 4.95013C38.4128 4.95013 38.2943 5.06206 38.2943 5.20013C38.2943 5.33821 38.4128 5.45014 38.559 5.45014Z" fill="#428BC1"/>
<path d="M37.9762 4.85032C37.9233 5.00032 37.7644 5.05032 37.6056 5.00032C37.4468 4.95032 37.3939 4.80032 37.4468 4.65032C37.4997 4.50032 37.6586 4.45032 37.8174 4.50032C37.9762 4.60032 38.0291 4.75032 37.9762 4.85032Z" fill="#428BC1"/>
<path d="M37.0209 4.55031C37.0209 4.70031 36.8621 4.80031 36.7033 4.75031C36.5444 4.75031 36.4386 4.60031 36.4915 4.45031C36.4915 4.30031 36.6503 4.20031 36.8091 4.25031C36.968 4.30031 37.0738 4.45031 37.0209 4.55031Z" fill="#428BC1"/>
<path d="M36.0706 4.50036C36.0706 4.65036 35.9647 4.75036 35.8588 4.80036C35.7 4.80036 35.5941 4.70036 35.5412 4.60036C35.5412 4.45036 35.6471 4.35036 35.753 4.30036C35.9118 4.25036 36.0706 4.35036 36.0706 4.50036Z" fill="#428BC1"/>
<path d="M36.2845 8.75049C36.7231 8.75049 37.0787 8.4147 37.0787 8.00049C37.0787 7.58627 36.7231 7.25049 36.2845 7.25049C35.846 7.25049 35.4904 7.58627 35.4904 8.00049C35.4904 8.4147 35.846 8.75049 36.2845 8.75049Z" fill="#428BC1"/>
<path d="M36.2827 4.50024L36.1768 6.65024L36.2827 8.00024L36.4415 6.65024L36.2827 4.50024Z" fill="#428BC1"/>
<path d="M35.3283 4.60034L35.8048 6.75034L36.2812 8.00034L36.0695 6.65034L35.3283 4.60034Z" fill="#428BC1"/>
<path d="M34.426 4.9502L35.4848 6.9002L36.2789 8.0002L35.6966 6.7502L34.426 4.9502Z" fill="#428BC1"/>
<path d="M33.6877 5.50073L35.223 7.15073L36.2818 8.00073L35.3818 6.95073L33.6877 5.50073Z" fill="#428BC1"/>
<path d="M33.1027 6.25073L35.0086 7.45073L36.2792 8.00073L35.1145 7.20073L33.1027 6.25073Z" fill="#428BC1"/>
<path d="M32.7355 7.10022L34.9061 7.75022L36.2825 8.00022L34.959 7.55022L32.7355 7.10022Z" fill="#428BC1"/>
<path d="M32.5775 7.9999L34.9069 8.0999L36.2833 7.9999L34.9069 7.8999L32.5775 7.9999Z" fill="#428BC1"/>
<path d="M32.7355 8.90061L34.959 8.45061L36.2825 8.00061L34.9061 8.25061L32.7355 8.90061Z" fill="#428BC1"/>
<path d="M33.1027 9.75073L35.1145 8.80073L36.2792 8.00073L35.0086 8.55073L33.1027 9.75073Z" fill="#428BC1"/>
<path d="M33.6877 10.4502L35.3818 9.05024L36.2818 8.00024L35.223 8.85024L33.6877 10.4502Z" fill="#428BC1"/>
<path d="M34.426 11.0507L35.6966 9.20073L36.2789 8.00073L35.4848 9.10073L34.426 11.0507Z" fill="#428BC1"/>
<path d="M35.3283 11.4007L36.0695 9.35073L36.2812 8.00073L35.8048 9.25073L35.3283 11.4007Z" fill="#428BC1"/>
<path d="M36.2827 11.5002L36.4415 9.35024L36.2827 8.00024L36.1768 9.35024L36.2827 11.5002Z" fill="#428BC1"/>
<path d="M37.2372 11.4006L36.8137 9.25061L36.2842 8.00061L36.5489 9.35061L37.2372 11.4006Z" fill="#428BC1"/>
<path d="M38.1372 11.0506L37.1313 9.10061L36.2842 8.00061L36.9195 9.25061L38.1372 11.0506Z" fill="#428BC1"/>
<path d="M38.9313 10.4506L37.396 8.85061L36.2842 8.00061L37.2372 9.05061L38.9313 10.4506Z" fill="#428BC1"/>
<path d="M39.5137 9.75061L37.6078 8.55061L36.2842 8.00061L37.4489 8.80061L39.5137 9.75061Z" fill="#428BC1"/>
<path d="M39.8842 8.90061L37.7137 8.25061L36.2842 8.00061L37.6607 8.45061L39.8842 8.90061Z" fill="#428BC1"/>
<path d="M39.9901 8.00022L37.7137 7.85022L36.2842 8.00022L37.7137 8.10022L39.9901 8.00022Z" fill="#428BC1"/>
<path d="M39.8842 7.10022L37.6607 7.55022L36.2842 8.00022L37.7137 7.75022L39.8842 7.10022Z" fill="#428BC1"/>
<path d="M39.5137 6.25061L37.4489 7.20061L36.2842 8.00061L37.6078 7.45061L39.5137 6.25061Z" fill="#428BC1"/>
<path d="M38.9313 5.55008L37.2372 6.95008L36.2842 8.00008L37.396 7.15008L38.9313 5.55008Z" fill="#428BC1"/>
<path d="M38.1372 4.95013L36.9195 6.80014L36.2842 8.00014L37.1313 6.90013L38.1372 4.95013Z" fill="#428BC1"/>
<path d="M37.2901 4.60022L36.5489 6.65022L36.2842 8.00022L36.8137 6.75022L37.2901 4.60022Z" fill="#428BC1"/>
</svg>
