<svg xmlns="http://www.w3.org/2000/svg" width="32" height="32" viewBox="0 0 32 32" fill="none">
  <path d="M12.1109 16.0973C12.1109 13.8937 13.8978 12.1069 16.1027 12.1069C18.3076 12.1069 20.0954 13.8937 20.0954 16.0973C20.0954 18.3008 18.3076 20.0876 16.1027 20.0876C13.8978 20.0876 12.1109 18.3008 12.1109 16.0973ZM9.95255 16.0973C9.95255 19.492 12.706 22.2437 16.1027 22.2437C19.4995 22.2437 22.2529 19.492 22.2529 16.0973C22.2529 12.7025 19.4995 9.95077 16.1027 9.95077C12.706 9.95077 9.95255 12.7025 9.95255 16.0973ZM21.0591 9.70706C21.059 9.99116 21.1431 10.2689 21.301 10.5052C21.4588 10.7415 21.6832 10.9257 21.9458 11.0345C22.2084 11.1433 22.4974 11.1719 22.7762 11.1166C23.055 11.0612 23.3112 10.9245 23.5122 10.7237C23.7133 10.5229 23.8503 10.267 23.9059 9.98843C23.9615 9.70982 23.9331 9.42099 23.8244 9.15848C23.7157 8.89597 23.5316 8.67156 23.2953 8.51363C23.059 8.3557 22.7812 8.27134 22.4969 8.27123H22.4963C22.1153 8.27141 21.7499 8.42272 21.4804 8.69194C21.211 8.96115 21.0594 9.32626 21.0591 9.70706ZM11.2639 25.8406C10.0962 25.7874 9.46148 25.593 9.03969 25.4288C8.4805 25.2112 8.08152 24.9521 7.66203 24.5335C7.24254 24.1148 6.98287 23.7164 6.76613 23.1576C6.60171 22.7362 6.4072 22.1017 6.35411 20.9347C6.29605 19.6729 6.28445 19.2939 6.28445 16.0973C6.28445 12.9008 6.29701 12.5228 6.35411 11.26C6.40729 10.093 6.60324 9.45971 6.76613 9.03712C6.98383 8.47826 7.24311 8.07952 7.66203 7.66028C8.08094 7.24104 8.47954 6.98153 9.03969 6.76492C9.46129 6.60059 10.0962 6.4062 11.2639 6.35315C12.5264 6.29512 12.9057 6.28353 16.1027 6.28353C19.2998 6.28353 19.6794 6.29608 20.9429 6.35315C22.1107 6.4063 22.7443 6.60213 23.1672 6.76492C23.7264 6.98153 24.1253 7.24161 24.5448 7.66028C24.9643 8.07894 25.223 8.47826 25.4407 9.03712C25.6052 9.45847 25.7997 10.093 25.8527 11.26C25.9108 12.5228 25.9224 12.9008 25.9224 16.0973C25.9224 19.2939 25.9108 19.6719 25.8527 20.9347C25.7996 22.1017 25.6041 22.736 25.4407 23.1576C25.223 23.7164 24.9637 24.1152 24.5448 24.5335C24.1259 24.9517 23.7264 25.2112 23.1672 25.4288C22.7456 25.5931 22.1107 25.7875 20.9429 25.8406C19.6805 25.8986 19.3012 25.9102 16.1027 25.9102C12.9042 25.9102 12.526 25.8986 11.2639 25.8406ZM11.1647 4.19969C9.88969 4.25772 9.01842 4.45977 8.25753 4.75567C7.46953 5.06124 6.80245 5.47119 6.13584 6.13635C5.46924 6.8015 5.06009 7.46924 4.75434 8.25677C4.45826 9.01768 4.25609 9.88795 4.19802 11.1622C4.139 12.4385 4.12549 12.8466 4.12549 16.0973C4.12549 19.3479 4.139 19.756 4.19802 21.0323C4.25609 22.3066 4.45826 23.1768 4.75434 23.9377C5.06009 24.7248 5.46933 25.3933 6.13584 26.0582C6.80235 26.723 7.46953 27.1324 8.25753 27.4388C9.01986 27.7347 9.88969 27.9368 11.1647 27.9948C12.4425 28.0528 12.8501 28.0673 16.1027 28.0673C19.3553 28.0673 19.7636 28.0538 21.0407 27.9948C22.3158 27.9368 23.1865 27.7347 23.9479 27.4388C24.7354 27.1324 25.403 26.7233 26.0696 26.0582C26.7362 25.393 27.1445 24.7248 27.4511 23.9377C27.7472 23.1768 27.9503 22.3065 28.0074 21.0323C28.0655 19.755 28.079 19.3479 28.079 16.0973C28.079 12.8466 28.0655 12.4385 28.0074 11.1622C27.9493 9.88786 27.7472 9.0172 27.4511 8.25677C27.1445 7.46971 26.7351 6.80255 26.0696 6.13635C25.404 5.47014 24.7354 5.06124 23.9488 4.75567C23.1865 4.45977 22.3157 4.25676 21.0416 4.19969C19.7646 4.14166 19.3563 4.1272 16.1037 4.1272C12.851 4.1272 12.4425 4.1407 11.1647 4.19969Z" fill="white"/>
  <path d="M12.1109 16.0973C12.1109 13.8937 13.8978 12.1069 16.1027 12.1069C18.3076 12.1069 20.0954 13.8937 20.0954 16.0973C20.0954 18.3008 18.3076 20.0876 16.1027 20.0876C13.8978 20.0876 12.1109 18.3008 12.1109 16.0973ZM9.95255 16.0973C9.95255 19.492 12.706 22.2437 16.1027 22.2437C19.4995 22.2437 22.2529 19.492 22.2529 16.0973C22.2529 12.7025 19.4995 9.95077 16.1027 9.95077C12.706 9.95077 9.95255 12.7025 9.95255 16.0973ZM21.0591 9.70706C21.059 9.99116 21.1431 10.2689 21.301 10.5052C21.4588 10.7415 21.6832 10.9257 21.9458 11.0345C22.2084 11.1433 22.4974 11.1719 22.7762 11.1166C23.055 11.0612 23.3112 10.9245 23.5122 10.7237C23.7133 10.5229 23.8503 10.267 23.9059 9.98843C23.9615 9.70982 23.9331 9.42099 23.8244 9.15848C23.7157 8.89597 23.5316 8.67156 23.2953 8.51363C23.059 8.3557 22.7812 8.27134 22.4969 8.27123H22.4963C22.1153 8.27141 21.7499 8.42272 21.4804 8.69194C21.211 8.96115 21.0594 9.32626 21.0591 9.70706ZM11.2639 25.8406C10.0962 25.7874 9.46148 25.593 9.03969 25.4288C8.4805 25.2112 8.08152 24.9521 7.66203 24.5335C7.24254 24.1148 6.98287 23.7164 6.76613 23.1576C6.60171 22.7362 6.4072 22.1017 6.35411 20.9347C6.29605 19.6729 6.28445 19.2939 6.28445 16.0973C6.28445 12.9008 6.29701 12.5228 6.35411 11.26C6.40729 10.093 6.60324 9.45971 6.76613 9.03712C6.98383 8.47826 7.24311 8.07952 7.66203 7.66028C8.08094 7.24104 8.47954 6.98153 9.03969 6.76492C9.46129 6.60059 10.0962 6.4062 11.2639 6.35315C12.5264 6.29512 12.9057 6.28353 16.1027 6.28353C19.2998 6.28353 19.6794 6.29608 20.9429 6.35315C22.1107 6.4063 22.7443 6.60213 23.1672 6.76492C23.7264 6.98153 24.1253 7.24161 24.5448 7.66028C24.9643 8.07894 25.223 8.47826 25.4407 9.03712C25.6052 9.45847 25.7997 10.093 25.8527 11.26C25.9108 12.5228 25.9224 12.9008 25.9224 16.0973C25.9224 19.2939 25.9108 19.6719 25.8527 20.9347C25.7996 22.1017 25.6041 22.736 25.4407 23.1576C25.223 23.7164 24.9637 24.1152 24.5448 24.5335C24.1259 24.9517 23.7264 25.2112 23.1672 25.4288C22.7456 25.5931 22.1107 25.7875 20.9429 25.8406C19.6805 25.8986 19.3012 25.9102 16.1027 25.9102C12.9042 25.9102 12.526 25.8986 11.2639 25.8406ZM11.1647 4.19969C9.88969 4.25772 9.01842 4.45977 8.25753 4.75567C7.46953 5.06124 6.80245 5.47119 6.13584 6.13635C5.46924 6.8015 5.06009 7.46924 4.75434 8.25677C4.45826 9.01768 4.25609 9.88795 4.19802 11.1622C4.139 12.4385 4.12549 12.8466 4.12549 16.0973C4.12549 19.3479 4.139 19.756 4.19802 21.0323C4.25609 22.3066 4.45826 23.1768 4.75434 23.9377C5.06009 24.7248 5.46933 25.3933 6.13584 26.0582C6.80235 26.723 7.46953 27.1324 8.25753 27.4388C9.01986 27.7347 9.88969 27.9368 11.1647 27.9948C12.4425 28.0528 12.8501 28.0673 16.1027 28.0673C19.3553 28.0673 19.7636 28.0538 21.0407 27.9948C22.3158 27.9368 23.1865 27.7347 23.9479 27.4388C24.7354 27.1324 25.403 26.7233 26.0696 26.0582C26.7362 25.393 27.1445 24.7248 27.4511 23.9377C27.7472 23.1768 27.9503 22.3065 28.0074 21.0323C28.0655 19.755 28.079 19.3479 28.079 16.0973C28.079 12.8466 28.0655 12.4385 28.0074 11.1622C27.9493 9.88786 27.7472 9.0172 27.4511 8.25677C27.1445 7.46971 26.7351 6.80255 26.0696 6.13635C25.404 5.47014 24.7354 5.06124 23.9488 4.75567C23.1865 4.45977 22.3157 4.25676 21.0416 4.19969C19.7646 4.14166 19.3563 4.1272 16.1037 4.1272C12.851 4.1272 12.4425 4.1407 11.1647 4.19969Z" fill="white"/>
</svg>