<svg xmlns="http://www.w3.org/2000/svg" width="32" height="32" viewBox="0 0 32 32" fill="none">
  <path fill-rule="evenodd" clip-rule="evenodd" d="M5.89091 4.12C4.91323 4.12 4.12012 4.88896 4.12012 5.83632V26.3642C4.12012 27.3117 4.91332 28.08 5.89091 28.08H26.3093C27.2874 28.08 28.0801 27.3116 28.0801 26.364V5.83632C28.0801 4.88896 27.2874 4.12 26.3093 4.12H5.89091ZM11.4011 13.3845V24.1714H7.81575V13.3845H11.4011ZM11.6375 10.0486C11.6375 11.0837 10.8592 11.912 9.60919 11.912L9.5857 11.9119C8.38236 11.9119 7.60441 11.0836 7.60441 10.0485C7.60441 8.98985 8.40586 8.18467 9.63296 8.18467C10.8592 8.18467 11.6141 8.98985 11.6375 10.0486ZM16.9708 24.1714H13.3857C13.3857 24.1714 13.4327 14.3969 13.3859 13.3849H16.9711V14.9118C17.4477 14.1769 18.3007 13.1317 20.2024 13.1317C22.5613 13.1317 24.3298 14.6734 24.3298 17.9866V24.1714H20.7448V18.4014C20.7448 16.9511 20.2256 15.962 18.9286 15.962C17.9379 15.962 17.348 16.6291 17.0889 17.2735C16.9942 17.5034 16.9708 17.8262 16.9708 18.1482V24.1714Z" fill="white"/>
</svg>