<svg width="24" height="24" viewBox="0 0 24 24" fill="none" xmlns="http://www.w3.org/2000/svg">
<path d="M20.2023 6.75375C19.6594 6.9874 19.0886 7.15009 18.5041 7.23782C18.7774 7.19098 19.1795 6.6991 19.3395 6.50001C19.5827 6.19969 19.768 5.85686 19.8861 5.48893C19.8861 5.4616 19.9134 5.42256 19.8861 5.40305C19.8723 5.39553 19.8568 5.39159 19.8412 5.39159C19.8255 5.39159 19.81 5.39553 19.7963 5.40305C19.1616 5.74674 18.4861 6.00906 17.7858 6.1838C17.7614 6.19126 17.7354 6.19193 17.7107 6.18574C17.6859 6.17955 17.6633 6.16673 17.6453 6.14867C17.5908 6.08376 17.5321 6.02247 17.4696 5.96519C17.184 5.70928 16.8599 5.49982 16.5093 5.34449C16.036 5.15031 15.5247 5.06621 15.0141 5.09855C14.5187 5.12984 14.035 5.26272 13.5932 5.48893C13.158 5.72742 12.7756 6.05142 12.4689 6.44145C12.1462 6.8429 11.9133 7.30878 11.7857 7.80777C11.6805 8.28241 11.6686 8.77298 11.7506 9.25217C11.7506 9.33415 11.7506 9.34586 11.6803 9.33415C8.89693 8.92425 6.61322 7.9366 4.74722 5.81685C4.66524 5.72316 4.6223 5.72316 4.55594 5.81685C3.74395 7.05044 4.13823 9.00233 5.15321 9.96656C5.28985 10.0954 5.43038 10.2203 5.57873 10.3374C5.11336 10.3044 4.65937 10.1783 4.24363 9.96656C4.16556 9.91581 4.12262 9.94314 4.11871 10.0368C4.10765 10.1667 4.10765 10.2973 4.11871 10.4272C4.20017 11.0497 4.44549 11.6394 4.82959 12.136C5.21369 12.6326 5.72279 13.0182 6.30483 13.2535C6.44671 13.3143 6.59456 13.3601 6.74595 13.3902C6.31514 13.475 5.87329 13.4882 5.43819 13.4292C5.3445 13.4097 5.30936 13.4604 5.3445 13.5502C5.91835 15.1117 7.16366 15.588 8.07714 15.8535C8.20206 15.873 8.32698 15.873 8.46752 15.9042C8.46752 15.9042 8.46752 15.9042 8.44409 15.9276C8.17473 16.4195 7.08558 16.7513 6.5859 16.9231C5.67385 17.2507 4.70143 17.3759 3.73614 17.29C3.5839 17.2666 3.54876 17.2705 3.50973 17.29C3.47069 17.3096 3.50973 17.3525 3.55267 17.3915C3.74786 17.5204 3.94304 17.6336 4.14604 17.7429C4.75036 18.0725 5.38925 18.3343 6.05108 18.5236C9.47859 19.4684 13.3355 18.7735 15.9081 16.2165C17.9303 14.21 18.6407 11.4422 18.6407 8.67051C18.6407 8.56511 18.7696 8.50265 18.8437 8.44799C19.3553 8.04937 19.8064 7.57862 20.1827 7.05044C20.2479 6.97171 20.2813 6.87146 20.2764 6.76937C20.2764 6.71081 20.2764 6.72252 20.2023 6.75375Z" fill="white"/>
</svg>
