<svg width="24" height="24" viewBox="0 0 24 24" fill="none" xmlns="http://www.w3.org/2000/svg">
<path d="M9.08308 12.073C9.08308 10.4203 10.4233 9.08025 12.0769 9.08025C13.7306 9.08025 15.0715 10.4203 15.0715 12.073C15.0715 13.7257 13.7306 15.0658 12.0769 15.0658C10.4233 15.0658 9.08308 13.7257 9.08308 12.073ZM7.46429 12.073C7.46429 14.619 9.52936 16.6829 12.0769 16.6829C14.6245 16.6829 16.6895 14.619 16.6895 12.073C16.6895 9.52697 14.6245 7.46314 12.0769 7.46314C9.52936 7.46314 7.46429 9.52697 7.46429 12.073ZM15.7942 7.28036C15.7941 7.49343 15.8572 7.70174 15.9756 7.87895C16.094 8.05616 16.2623 8.19431 16.4592 8.27592C16.6562 8.35754 16.8729 8.37896 17.082 8.33748C17.2911 8.29599 17.4832 8.19347 17.6341 8.04286C17.7849 7.89226 17.8876 7.70034 17.9293 7.49138C17.971 7.28242 17.9497 7.0658 17.8682 6.86892C17.7867 6.67203 17.6486 6.50373 17.4714 6.38528C17.2942 6.26683 17.0858 6.20357 16.8726 6.20348H16.8721C16.5864 6.20362 16.3123 6.3171 16.1102 6.51901C15.9081 6.72093 15.7944 6.99475 15.7942 7.28036ZM8.44781 19.3805C7.57201 19.3406 7.09599 19.1948 6.77965 19.0717C6.36025 18.9085 6.06102 18.7142 5.7464 18.4002C5.43178 18.0862 5.23703 17.7874 5.07448 17.3682C4.95116 17.0522 4.80528 16.5763 4.76546 15.7011C4.72191 14.7548 4.71322 14.4705 4.71322 12.0731C4.71322 9.67564 4.72263 9.39216 4.76546 8.44507C4.80535 7.56979 4.95231 7.09485 5.07448 6.7779C5.23775 6.35876 5.43221 6.0597 5.7464 5.74527C6.06058 5.43084 6.35954 5.23621 6.77965 5.07375C7.09585 4.95051 7.57201 4.80471 8.44781 4.76492C9.39468 4.7214 9.67912 4.71271 12.0769 4.71271C14.4747 4.71271 14.7594 4.72212 15.7071 4.76492C16.5829 4.80478 17.0581 4.95166 17.3753 5.07375C17.7946 5.23621 18.0939 5.43127 18.4085 5.74527C18.7231 6.05927 18.9172 6.35876 19.0804 6.7779C19.2037 7.09391 19.3496 7.56979 19.3894 8.44507C19.433 9.39216 19.4417 9.67564 19.4417 12.0731C19.4417 14.4705 19.433 14.754 19.3894 15.7011C19.3496 16.5763 19.203 17.0521 19.0804 17.3682C18.9172 17.7874 18.7227 18.0864 18.4085 18.4002C18.0943 18.7139 17.7946 18.9085 17.3753 19.0717C17.0591 19.1949 16.5829 19.3407 15.7071 19.3805C14.7602 19.424 14.4758 19.4327 12.0769 19.4327C9.67804 19.4327 9.3944 19.424 8.44781 19.3805ZM8.37343 3.14983C7.41715 3.19335 6.7637 3.34489 6.19303 3.56682C5.60202 3.79599 5.10171 4.10346 4.60176 4.60232C4.10181 5.10119 3.79495 5.60199 3.56563 6.19264C3.34358 6.76332 3.19194 7.41603 3.14839 8.37174C3.10413 9.32896 3.09399 9.63499 3.09399 12.073C3.09399 14.511 3.10413 14.817 3.14839 15.7743C3.19194 16.73 3.34358 17.3827 3.56563 17.9534C3.79495 18.5436 4.10188 19.045 4.60176 19.5437C5.10164 20.0423 5.60202 20.3494 6.19303 20.5792C6.76477 20.8011 7.41715 20.9526 8.37343 20.9962C9.33173 21.0397 9.63744 21.0505 12.0769 21.0505C14.5164 21.0505 14.8226 21.0404 15.7804 20.9962C16.7367 20.9526 17.3898 20.8011 17.9608 20.5792C18.5514 20.3494 19.0521 20.0425 19.5521 19.5437C20.052 19.0448 20.3582 18.5436 20.5882 17.9534C20.8102 17.3827 20.9626 16.73 21.0054 15.7743C21.049 14.8163 21.0591 14.511 21.0591 12.073C21.0591 9.63499 21.049 9.32896 21.0054 8.37174C20.9619 7.41595 20.8102 6.76296 20.5882 6.19264C20.3582 5.60235 20.0512 5.10197 19.5521 4.60232C19.0529 4.10267 18.5514 3.79599 17.9615 3.56682C17.3898 3.34489 16.7367 3.19263 15.7811 3.14983C14.8233 3.1063 14.5171 3.09546 12.0776 3.09546C9.63816 3.09546 9.33173 3.10559 8.37343 3.14983Z" fill="white"/>
<path d="M9.08308 12.073C9.08308 10.4203 10.4233 9.08025 12.0769 9.08025C13.7306 9.08025 15.0715 10.4203 15.0715 12.073C15.0715 13.7257 13.7306 15.0658 12.0769 15.0658C10.4233 15.0658 9.08308 13.7257 9.08308 12.073ZM7.46429 12.073C7.46429 14.619 9.52936 16.6829 12.0769 16.6829C14.6245 16.6829 16.6895 14.619 16.6895 12.073C16.6895 9.52697 14.6245 7.46314 12.0769 7.46314C9.52936 7.46314 7.46429 9.52697 7.46429 12.073ZM15.7942 7.28036C15.7941 7.49343 15.8572 7.70174 15.9756 7.87895C16.094 8.05616 16.2623 8.19431 16.4592 8.27592C16.6562 8.35754 16.8729 8.37896 17.082 8.33748C17.2911 8.29599 17.4832 8.19347 17.6341 8.04286C17.7849 7.89226 17.8876 7.70034 17.9293 7.49138C17.971 7.28242 17.9497 7.0658 17.8682 6.86892C17.7867 6.67203 17.6486 6.50373 17.4714 6.38528C17.2942 6.26683 17.0858 6.20357 16.8726 6.20348H16.8721C16.5864 6.20362 16.3123 6.3171 16.1102 6.51901C15.9081 6.72093 15.7944 6.99475 15.7942 7.28036ZM8.44781 19.3805C7.57201 19.3406 7.09599 19.1948 6.77965 19.0717C6.36025 18.9085 6.06102 18.7142 5.7464 18.4002C5.43178 18.0862 5.23703 17.7874 5.07448 17.3682C4.95116 17.0522 4.80528 16.5763 4.76546 15.7011C4.72191 14.7548 4.71322 14.4705 4.71322 12.0731C4.71322 9.67564 4.72263 9.39216 4.76546 8.44507C4.80535 7.56979 4.95231 7.09485 5.07448 6.7779C5.23775 6.35876 5.43221 6.0597 5.7464 5.74527C6.06058 5.43084 6.35954 5.23621 6.77965 5.07375C7.09585 4.95051 7.57201 4.80471 8.44781 4.76492C9.39468 4.7214 9.67912 4.71271 12.0769 4.71271C14.4747 4.71271 14.7594 4.72212 15.7071 4.76492C16.5829 4.80478 17.0581 4.95166 17.3753 5.07375C17.7946 5.23621 18.0939 5.43127 18.4085 5.74527C18.7231 6.05927 18.9172 6.35876 19.0804 6.7779C19.2037 7.09391 19.3496 7.56979 19.3894 8.44507C19.433 9.39216 19.4417 9.67564 19.4417 12.0731C19.4417 14.4705 19.433 14.754 19.3894 15.7011C19.3496 16.5763 19.203 17.0521 19.0804 17.3682C18.9172 17.7874 18.7227 18.0864 18.4085 18.4002C18.0943 18.7139 17.7946 18.9085 17.3753 19.0717C17.0591 19.1949 16.5829 19.3407 15.7071 19.3805C14.7602 19.424 14.4758 19.4327 12.0769 19.4327C9.67804 19.4327 9.3944 19.424 8.44781 19.3805ZM8.37343 3.14983C7.41715 3.19335 6.7637 3.34489 6.19303 3.56682C5.60202 3.79599 5.10171 4.10346 4.60176 4.60232C4.10181 5.10119 3.79495 5.60199 3.56563 6.19264C3.34358 6.76332 3.19194 7.41603 3.14839 8.37174C3.10413 9.32896 3.09399 9.63499 3.09399 12.073C3.09399 14.511 3.10413 14.817 3.14839 15.7743C3.19194 16.73 3.34358 17.3827 3.56563 17.9534C3.79495 18.5436 4.10188 19.045 4.60176 19.5437C5.10164 20.0423 5.60202 20.3494 6.19303 20.5792C6.76477 20.8011 7.41715 20.9526 8.37343 20.9962C9.33173 21.0397 9.63744 21.0505 12.0769 21.0505C14.5164 21.0505 14.8226 21.0404 15.7804 20.9962C16.7367 20.9526 17.3898 20.8011 17.9608 20.5792C18.5514 20.3494 19.0521 20.0425 19.5521 19.5437C20.052 19.0448 20.3582 18.5436 20.5882 17.9534C20.8102 17.3827 20.9626 16.73 21.0054 15.7743C21.049 14.8163 21.0591 14.511 21.0591 12.073C21.0591 9.63499 21.049 9.32896 21.0054 8.37174C20.9619 7.41595 20.8102 6.76296 20.5882 6.19264C20.3582 5.60235 20.0512 5.10197 19.5521 4.60232C19.0529 4.10267 18.5514 3.79599 17.9615 3.56682C17.3898 3.34489 16.7367 3.19263 15.7811 3.14983C14.8233 3.1063 14.5171 3.09546 12.0776 3.09546C9.63816 3.09546 9.33173 3.10559 8.37343 3.14983Z" fill="white"/>
</svg>
