<svg width="24" height="24" viewBox="0 0 24 24" fill="none" xmlns="http://www.w3.org/2000/svg">
<path fill-rule="evenodd" clip-rule="evenodd" d="M4.41818 3.09009C3.68492 3.09009 3.09009 3.66681 3.09009 4.37733V19.7733C3.09009 20.4839 3.68499 21.0601 4.41818 21.0601H19.732C20.4655 21.0601 21.0601 20.4838 21.0601 19.7731V4.37733C21.0601 3.66681 20.4655 3.09009 19.732 3.09009H4.41818ZM8.55085 10.0385V18.1287H5.86181V10.0385H8.55085ZM8.7281 7.53653C8.7281 8.31289 8.14442 8.93412 7.20689 8.93412L7.18927 8.93405C6.28677 8.93405 5.70331 8.31282 5.70331 7.53646C5.70331 6.74248 6.30439 6.13859 7.22472 6.13859C8.14442 6.13859 8.71055 6.74248 8.7281 7.53653ZM12.7281 18.1287H10.0393C10.0393 18.1287 10.0745 10.7977 10.0394 10.0388H12.7283V11.1839C13.0858 10.6328 13.7255 9.84884 15.1518 9.84884C16.9209 9.84884 18.2474 11.0052 18.2474 13.49V18.1287H15.5586V13.8011C15.5586 12.7134 15.1692 11.9716 14.1965 11.9716C13.4534 11.9716 13.011 12.4719 12.8167 12.9552C12.7457 13.1277 12.7281 13.3698 12.7281 13.6112V18.1287Z" fill="white"/>
</svg>
