<svg width="88" height="88" viewBox="0 0 88 88" fill="none" xmlns="http://www.w3.org/2000/svg">
<g filter="url(#filter0_d_150_429)">
<rect x="8" y="44" width="50.9116" height="50.9116" rx="6" transform="rotate(-45 8 44)" fill="url(#paint0_linear_150_429)"/>
</g>
<path fill-rule="evenodd" clip-rule="evenodd" d="M43.9997 26.0002C43.1713 26.0002 42.5069 26.674 42.4326 27.499C41.6753 35.9093 34.6072 42.5002 25.9997 42.5002C25.1713 42.5002 24.4997 43.1717 24.4997 44.0002C24.4997 44.8286 25.1713 45.5002 25.9997 45.5002C34.6072 45.5002 41.6753 52.091 42.4326 60.5013C42.5069 61.3264 43.1713 62.0002 43.9997 62.0002C44.8282 62.0002 45.5058 61.3272 45.443 60.5011C44.9625 54.1812 41.4695 48.7034 36.3968 45.5002H60.4998C61.3282 45.5002 61.9998 44.8286 61.9998 44.0002C61.9998 43.1717 61.3282 42.5002 60.4998 42.5002H36.3968C41.4695 39.297 44.9625 33.8191 45.443 27.4992C45.5058 26.6732 44.8282 26.0002 43.9997 26.0002Z" fill="#FFF000"/>
<defs>
<filter id="filter0_d_150_429" x="0.485352" y="0.485291" width="87.0293" height="87.0294" filterUnits="userSpaceOnUse" color-interpolation-filters="sRGB">
<feFlood flood-opacity="0" result="BackgroundImageFix"/>
<feColorMatrix in="SourceAlpha" type="matrix" values="0 0 0 0 0 0 0 0 0 0 0 0 0 0 0 0 0 0 127 0" result="hardAlpha"/>
<feOffset/>
<feGaussianBlur stdDeviation="5"/>
<feComposite in2="hardAlpha" operator="out"/>
<feColorMatrix type="matrix" values="0 0 0 0 1 0 0 0 0 0.941176 0 0 0 0 0 0 0 0 0.15 0"/>
<feBlend mode="normal" in2="BackgroundImageFix" result="effect1_dropShadow_150_429"/>
<feBlend mode="normal" in="SourceGraphic" in2="effect1_dropShadow_150_429" result="shape"/>
</filter>
<linearGradient id="paint0_linear_150_429" x1="33.4558" y1="23.9443" x2="33.4558" y2="114.844" gradientUnits="userSpaceOnUse">
<stop stop-color="#023A39"/>
<stop offset="0.979756" stop-color="#035E5D"/>
</linearGradient>
</defs>
</svg>
