<svg width="88" height="88" viewBox="0 0 88 88" fill="none" xmlns="http://www.w3.org/2000/svg">
<g filter="url(#filter0_d_357_219)">
<rect x="8.00024" y="43.9999" width="50.9116" height="50.9116" rx="6" transform="rotate(-45 8.00024 43.9999)" fill="url(#paint0_linear_357_219)"/>
</g>
<path fill-rule="evenodd" clip-rule="evenodd" d="M44.0002 26.0002C44.8287 26.0002 45.4931 26.674 45.5674 27.4991C46.3247 35.9093 53.3928 42.5002 62.0002 42.5002C62.8287 42.5002 63.5002 43.1718 63.5002 44.0002C63.5002 44.8286 62.8287 45.5002 62.0002 45.5002C53.3928 45.5002 46.3247 52.091 45.5674 60.5013C45.4931 61.3264 44.8287 62.0002 44.0002 62.0002C43.1718 62.0002 42.4942 61.3271 42.557 60.5011C43.0375 54.1812 46.5304 48.7034 51.6032 45.5002H27.5002C26.6718 45.5002 26.0002 44.8286 26.0002 44.0002C26.0002 43.1718 26.6718 42.5002 27.5002 42.5002H51.6032C46.5304 39.297 43.0375 33.8191 42.557 27.4993C42.4942 26.6732 43.1718 26.0002 44.0002 26.0002Z" fill="#FFF000"/>
<defs>
<filter id="filter0_d_357_219" x="0.485596" y="0.485229" width="87.0293" height="87.0294" filterUnits="userSpaceOnUse" color-interpolation-filters="sRGB">
<feFlood flood-opacity="0" result="BackgroundImageFix"/>
<feColorMatrix in="SourceAlpha" type="matrix" values="0 0 0 0 0 0 0 0 0 0 0 0 0 0 0 0 0 0 127 0" result="hardAlpha"/>
<feOffset/>
<feGaussianBlur stdDeviation="5"/>
<feComposite in2="hardAlpha" operator="out"/>
<feColorMatrix type="matrix" values="0 0 0 0 1 0 0 0 0 0.941176 0 0 0 0 0 0 0 0 0.15 0"/>
<feBlend mode="normal" in2="BackgroundImageFix" result="effect1_dropShadow_357_219"/>
<feBlend mode="normal" in="SourceGraphic" in2="effect1_dropShadow_357_219" result="shape"/>
</filter>
<linearGradient id="paint0_linear_357_219" x1="33.4561" y1="23.9443" x2="33.4561" y2="114.844" gradientUnits="userSpaceOnUse">
<stop stop-color="#023A39"/>
<stop offset="0.979756" stop-color="#035E5D"/>
</linearGradient>
</defs>
</svg>
