<svg width="36" height="36" viewBox="0 0 36 36" fill="none" xmlns="http://www.w3.org/2000/svg">
<path d="M16.5516 5.37949C16.9501 3.89946 19.0499 3.89946 19.4484 5.37949L21.5938 13.3477C21.7328 13.8639 22.1361 14.2672 22.6523 14.4062L30.6205 16.5516C32.1005 16.9501 32.1005 19.0499 30.6205 19.4484L22.6523 21.5938C22.1361 21.7328 21.7328 22.1361 21.5938 22.6523L19.4484 30.6205C19.0499 32.1005 16.9501 32.1005 16.5516 30.6205L14.4062 22.6523C14.2672 22.1361 13.8639 21.7328 13.3477 21.5938L5.37949 19.4484C3.89946 19.0499 3.89946 16.9501 5.37949 16.5516L13.3477 14.4062C13.8639 14.2672 14.2672 13.8639 14.4062 13.3477L16.5516 5.37949Z" fill="url(#paint0_diamond_35_1087)"/>
<path d="M16.5516 5.37949C16.9501 3.89946 19.0499 3.89946 19.4484 5.37949L21.5938 13.3477C21.7328 13.8639 22.1361 14.2672 22.6523 14.4062L30.6205 16.5516C32.1005 16.9501 32.1005 19.0499 30.6205 19.4484L22.6523 21.5938C22.1361 21.7328 21.7328 22.1361 21.5938 22.6523L19.4484 30.6205C19.0499 32.1005 16.9501 32.1005 16.5516 30.6205L14.4062 22.6523C14.2672 22.1361 13.8639 21.7328 13.3477 21.5938L5.37949 19.4484C3.89946 19.0499 3.89946 16.9501 5.37949 16.5516L13.3477 14.4062C13.8639 14.2672 14.2672 13.8639 14.4062 13.3477L16.5516 5.37949Z" fill="#FFF000"/>
<path d="M16.5516 5.37949C16.9501 3.89946 19.0499 3.89946 19.4484 5.37949L21.5938 13.3477C21.7328 13.8639 22.1361 14.2672 22.6523 14.4062L30.6205 16.5516C32.1005 16.9501 32.1005 19.0499 30.6205 19.4484L22.6523 21.5938C22.1361 21.7328 21.7328 22.1361 21.5938 22.6523L19.4484 30.6205C19.0499 32.1005 16.9501 32.1005 16.5516 30.6205L14.4062 22.6523C14.2672 22.1361 13.8639 21.7328 13.3477 21.5938L5.37949 19.4484C3.89946 19.0499 3.89946 16.9501 5.37949 16.5516L13.3477 14.4062C13.8639 14.2672 14.2672 13.8639 14.4062 13.3477L16.5516 5.37949Z" fill="#035E5D"/>
<defs>
<radialGradient id="paint0_diamond_35_1087" cx="0" cy="0" r="1" gradientUnits="userSpaceOnUse" gradientTransform="translate(18 18) rotate(90) scale(15.75)">
<stop offset="0.00706229" stop-color="#035E5D"/>
<stop offset="0.752651" stop-color="#FFF000"/>
</radialGradient>
</defs>
</svg>
