<svg width="20" height="20" viewBox="0 0 20 20" fill="none" xmlns="http://www.w3.org/2000/svg">
<path d="M9.19532 2.9886C9.41671 2.16637 10.5833 2.16637 10.8047 2.9886L11.9966 7.4154C12.0738 7.70219 12.2978 7.9262 12.5846 8.00342L17.0114 9.19532C17.8336 9.41671 17.8336 10.5833 17.0114 10.8047L12.5846 11.9966C12.2978 12.0738 12.0738 12.2978 11.9966 12.5846L10.8047 17.0114C10.5833 17.8336 9.41671 17.8336 9.19532 17.0114L8.00342 12.5846C7.9262 12.2978 7.70218 12.0738 7.4154 11.9966L2.9886 10.8047C2.16637 10.5833 2.16637 9.41671 2.9886 9.19532L7.4154 8.00342C7.70219 7.9262 7.9262 7.70218 8.00342 7.4154L9.19532 2.9886Z" fill="url(#paint0_diamond_35_1089)"/>
<path d="M9.19532 2.9886C9.41671 2.16637 10.5833 2.16637 10.8047 2.9886L11.9966 7.4154C12.0738 7.70219 12.2978 7.9262 12.5846 8.00342L17.0114 9.19532C17.8336 9.41671 17.8336 10.5833 17.0114 10.8047L12.5846 11.9966C12.2978 12.0738 12.0738 12.2978 11.9966 12.5846L10.8047 17.0114C10.5833 17.8336 9.41671 17.8336 9.19532 17.0114L8.00342 12.5846C7.9262 12.2978 7.70218 12.0738 7.4154 11.9966L2.9886 10.8047C2.16637 10.5833 2.16637 9.41671 2.9886 9.19532L7.4154 8.00342C7.70219 7.9262 7.9262 7.70218 8.00342 7.4154L9.19532 2.9886Z" fill="#FFF000"/>
<path d="M9.19532 2.9886C9.41671 2.16637 10.5833 2.16637 10.8047 2.9886L11.9966 7.4154C12.0738 7.70219 12.2978 7.9262 12.5846 8.00342L17.0114 9.19532C17.8336 9.41671 17.8336 10.5833 17.0114 10.8047L12.5846 11.9966C12.2978 12.0738 12.0738 12.2978 11.9966 12.5846L10.8047 17.0114C10.5833 17.8336 9.41671 17.8336 9.19532 17.0114L8.00342 12.5846C7.9262 12.2978 7.70218 12.0738 7.4154 11.9966L2.9886 10.8047C2.16637 10.5833 2.16637 9.41671 2.9886 9.19532L7.4154 8.00342C7.70219 7.9262 7.9262 7.70218 8.00342 7.4154L9.19532 2.9886Z" fill="#035E5D"/>
<defs>
<radialGradient id="paint0_diamond_35_1089" cx="0" cy="0" r="1" gradientUnits="userSpaceOnUse" gradientTransform="translate(10 10) rotate(90) scale(8.75)">
<stop offset="0.00706229" stop-color="#035E5D"/>
<stop offset="0.752651" stop-color="#FFF000"/>
</radialGradient>
</defs>
</svg>
