<svg width="72" height="72" viewBox="0 0 72 72" fill="none" xmlns="http://www.w3.org/2000/svg">
<rect x="0.000244141" y="36" width="50.9116" height="50.9116" rx="6" transform="rotate(-45 0.000244141 36)" fill="url(#paint0_linear_37_1290)"/>
<path fill-rule="evenodd" clip-rule="evenodd" d="M36.0002 18.0002C36.8287 18.0002 37.4931 18.674 37.5674 19.4991C38.3247 27.9094 45.3928 34.5002 54.0002 34.5002C54.8287 34.5002 55.5002 35.1718 55.5002 36.0002C55.5002 36.8287 54.8287 37.5002 54.0002 37.5002C45.3928 37.5002 38.3247 44.0911 37.5674 52.5014C37.4931 53.3265 36.8287 54.0002 36.0002 54.0002C35.1718 54.0002 34.4942 53.3272 34.557 52.5012C35.0375 46.1813 38.5304 40.7034 43.6032 37.5002H19.5002C18.6718 37.5002 18.0002 36.8287 18.0002 36.0002C18.0002 35.1718 18.6718 34.5002 19.5002 34.5002H43.6032C38.5304 31.2971 35.0375 25.8192 34.557 19.4993C34.4942 18.6733 35.1718 18.0002 36.0002 18.0002Z" fill="#FFF000"/>
<defs>
<linearGradient id="paint0_linear_37_1290" x1="25.4561" y1="15.9443" x2="25.4561" y2="106.844" gradientUnits="userSpaceOnUse">
<stop stop-color="#023A39"/>
<stop offset="0.979756" stop-color="#035E5D"/>
</linearGradient>
</defs>
</svg>
