<svg width="72" height="72" viewBox="0 0 72 72" fill="none" xmlns="http://www.w3.org/2000/svg">
<rect x="-1.0609" y="35.9999" width="52.4117" height="52.4117" rx="6.75" transform="rotate(-45 -1.0609 35.9999)" stroke="#035E5D" stroke-width="1.5"/>
<path fill-rule="evenodd" clip-rule="evenodd" d="M35.9998 17.9999C36.8282 17.9999 37.4926 18.6737 37.5669 19.4988C38.3242 27.9091 45.3923 34.4999 53.9998 34.4999C54.8282 34.4999 55.4998 35.1715 55.4998 35.9999C55.4998 36.8284 54.8282 37.4999 53.9998 37.4999C45.3923 37.4999 38.3242 44.0908 37.5669 52.5011C37.4926 53.3261 36.8282 53.9999 35.9998 53.9999C35.1713 53.9999 34.4937 53.3269 34.5565 52.5009C35.037 46.181 38.53 40.7031 43.6027 37.4999H19.4998C18.6713 37.4999 17.9998 36.8284 17.9998 35.9999C17.9998 35.1715 18.6713 34.4999 19.4998 34.4999H43.6027C38.53 31.2968 35.037 25.8189 34.5565 19.499C34.4937 18.673 35.1713 17.9999 35.9998 17.9999Z" fill="#035E5D"/>
</svg>
