<svg width="48" height="48" viewBox="0 0 48 48" fill="none" xmlns="http://www.w3.org/2000/svg">
<rect y="23.9999" width="33.9411" height="33.9411" rx="4" transform="rotate(-45 0 23.9999)" fill="url(#paint0_linear_56_194)"/>
<path fill-rule="evenodd" clip-rule="evenodd" d="M24.0001 12C24.5523 12 24.9953 12.4492 25.0448 12.9993C25.5497 18.6061 30.2618 23 36.0001 23C36.5523 23 37.0001 23.4477 37.0001 24C37.0001 24.5523 36.5523 25 36.0001 25C30.2618 25 25.5497 29.3939 25.0448 35.0007C24.9953 35.5508 24.5523 36 24.0001 36C23.4478 36 22.996 35.5513 23.0379 35.0006C23.3582 30.7874 25.6869 27.1355 29.0687 25H13.0001C12.4478 25 12.0001 24.5523 12.0001 24C12.0001 23.4477 12.4478 23 13.0001 23H29.0687C25.6869 20.8645 23.3582 17.2126 23.0379 12.9994C22.996 12.4487 23.4478 12 24.0001 12Z" fill="#FFF000"/>
<defs>
<linearGradient id="paint0_linear_56_194" x1="16.9705" y1="10.6295" x2="16.9705" y2="71.2294" gradientUnits="userSpaceOnUse">
<stop stop-color="#023A39"/>
<stop offset="0.979756" stop-color="#035E5D"/>
</linearGradient>
</defs>
</svg>
