<svg width="661" height="661" viewBox="0 0 661 661" fill="none" xmlns="http://www.w3.org/2000/svg">
<g clip-path="url(#clip0_56_91)">
<path d="M169.184 208.823C161.955 218.485 148.645 222.01 138.259 215.865C127.873 209.72 124.358 196.252 131.404 186.455C137.456 178.041 144.02 170.043 151.049 162.502C175.393 136.382 205.31 115.745 238.836 102.275C288.823 82.1914 344.04 79.163 395.924 93.6598C416.655 99.4523 436.392 107.914 454.681 118.735C457.901 120.64 461.076 122.617 464.201 124.666C475.815 132.276 486.761 140.862 496.918 150.329C497.669 151.028 498.415 151.733 499.156 152.442C501.117 154.315 503.047 156.222 504.946 158.163C512.387 165.763 519.355 173.873 525.795 182.454C547.483 211.351 562.37 244.507 569.649 279.462C571.75 289.551 573.217 299.804 574.031 310.145C574.977 322.166 564.999 331.855 552.941 331.726C540.891 331.598 531.347 321.702 530.155 309.711C529.153 299.634 527.376 289.506 524.782 279.396C517.23 249.96 503.538 223.726 485.428 201.712C479.29 194.251 468.149 194.184 461.245 200.942C454.337 207.705 454.302 218.736 460.3 226.318C465.654 233.086 470.492 240.285 474.758 247.858C481.787 260.339 487.141 273.62 490.732 287.361C492.616 294.57 494.015 301.91 494.916 309.326C496.37 321.301 486.34 331.016 474.278 330.887C462.222 330.759 452.745 320.811 450.719 308.926C450.152 305.6 449.444 302.27 448.591 298.943C440.194 266.214 419.326 239.987 392.376 224.042C391.402 223.466 390.421 222.904 389.433 222.356C363.04 207.706 331.21 202.736 299.663 210.83C296.337 211.683 293.077 212.665 289.889 213.769C278.496 217.716 265.214 214.198 259.297 203.693C253.377 193.182 257.062 179.714 268.259 175.224C275.192 172.443 282.298 170.137 289.527 168.316C303.299 164.849 317.517 163.148 331.84 163.301C355.144 163.549 378.067 168.698 399.143 178.339C407.922 182.354 418.613 179.697 423.528 171.388C428.444 163.08 425.721 152.284 417.019 148.104C375.869 128.337 327.795 122.405 280.116 134.638C233.957 146.48 195.67 173.422 169.184 208.823Z" fill="#035E5D" fill-opacity="0.1"/>
<path d="M544.723 389.326C533.112 386.082 521.177 392.919 516.685 404.106C502.526 439.37 478.519 470.342 447.149 492.82C437.35 499.842 433.539 513.061 439.455 523.564C445.369 534.063 458.74 537.86 468.671 531.036C477.231 525.153 485.375 518.755 493.064 511.888C514.625 492.635 532.611 469.706 546.175 444.18C551.008 435.084 555.28 425.659 558.953 415.952C563.221 404.669 556.342 392.573 544.723 389.326Z" fill="#035E5D" fill-opacity="0.1"/>
<path d="M369.505 570.87C381.415 568.925 388.453 556.916 385.454 545.227C382.455 533.538 370.543 526.623 358.599 528.351C281.661 539.477 206.554 504.906 164.115 442.881C158.657 434.903 161.703 424.178 170.125 419.434C178.551 414.688 189.156 417.737 194.763 425.617C199.765 432.647 205.324 439.302 211.404 445.512C221.423 455.748 232.681 464.599 244.871 471.886C251.264 475.707 257.919 479.1 264.786 482.036C275.882 486.78 288.016 479.86 291.263 468.238C294.508 456.624 287.604 444.745 276.753 439.485C245.494 424.333 220.858 396.04 211.549 359.757C211.482 359.494 211.415 359.23 211.349 358.966C202.357 322.942 210.359 286.61 230.317 258.487C237.296 248.652 237.628 234.915 229.192 226.297C220.75 217.674 206.784 217.45 199.342 226.95C194.737 232.828 190.539 239.005 186.774 245.435C179.597 257.69 173.992 270.868 170.137 284.663C163.866 307.108 162.406 330.557 165.775 353.487C167.178 363.039 161.64 372.561 152.289 374.96C142.938 377.359 133.332 371.729 131.743 362.207C128.033 339.971 128.163 317.839 131.694 296.555C133.667 284.659 127.014 272.615 115.4 269.37C103.792 266.126 91.6507 272.901 89.4542 284.753C87.5647 294.947 86.3242 305.238 85.742 315.531C84.328 340.532 86.7536 365.707 93.0283 390.164C103.703 431.774 125.143 469.84 155.193 500.537C185.242 531.235 222.843 553.481 264.215 565.041C288.534 571.836 313.651 574.797 338.677 573.917C348.989 573.554 359.286 572.539 369.505 570.87Z" fill="#035E5D" fill-opacity="0.1"/>
<path d="M360.477 447.871C374.552 444.26 387.425 438.342 398.794 430.626C408.777 423.852 422.523 423.796 430.962 432.417C439.396 441.032 439.322 454.987 429.676 462.219C423.683 466.712 417.412 470.779 410.91 474.403C398.671 481.223 385.615 486.469 372.059 490.012C364.866 491.892 357.527 493.293 350.094 494.196C338.119 495.65 328.404 485.619 328.532 473.557C328.661 461.501 338.608 452.025 350.493 449.999C353.82 449.432 357.15 448.724 360.477 447.871Z" fill="#035E5D" fill-opacity="0.1"/>
<path d="M482.802 394.529C487.514 383.488 480.63 371.417 469.068 368.187L463.355 366.591C454.836 364.211 446.087 369.264 442.608 377.396C439.127 385.533 441.553 395.309 449.17 399.816L454.28 402.839C464.612 408.952 478.09 405.571 482.802 394.529Z" fill="#035E5D" fill-opacity="0.1"/>
<circle cx="330.567" cy="331.288" r="87.3992" transform="rotate(75.6108 330.567 331.288)" fill="#035E5D" fill-opacity="0.1"/>
</g>
<defs>
<clipPath id="clip0_56_91">
<rect width="542.78" height="542.78" fill="white" transform="translate(525.753) rotate(75.6108)"/>
</clipPath>
</defs>
</svg>
