<svg width="601" height="600" viewBox="0 0 601 600" fill="none" xmlns="http://www.w3.org/2000/svg">
<g opacity="0.1" clip-path="url(#clip0_150_205)">
<path fill-rule="evenodd" clip-rule="evenodd" d="M106.953 458.252C115.699 468.935 115.81 484.693 106.047 494.456C96.2836 504.219 80.3646 504.282 71.448 493.74C63.803 484.702 56.7208 475.244 50.2285 465.421C25.2783 427.672 9.04195 384.538 3.0677 339.159C-5.55229 273.683 7.6734 207.193 40.6935 150.001C73.7137 92.8079 124.683 48.1091 185.696 22.8365C227.983 5.32089 273.456 -2.18497 318.623 0.547859C330.383 1.25942 342.123 2.66512 353.78 4.76899C367.355 7.21899 375.253 21.0241 371.682 34.3484C368.114 47.6669 354.435 55.4425 340.824 53.2353C327.697 51.1066 314.228 50.0001 300.5 50.0001C262.078 50.0001 225.68 58.6675 193.156 74.1538C183.19 78.8992 179.965 91.2284 185.484 100.788C191.007 110.354 203.222 113.562 213.269 108.974C223.842 104.146 234.836 100.186 246.147 97.1556C265.409 91.9942 285.223 89.625 304.991 90.048C313.481 90.2297 321.961 90.9262 330.387 92.1377C344.047 94.1018 351.955 107.962 348.383 121.292C344.813 134.616 331.108 142.32 317.389 140.881C311.839 140.298 306.204 140 300.5 140C256.317 140 216.316 157.908 187.362 186.863C185.943 188.282 184.552 189.726 183.191 191.193C156.698 219.743 140.5 257.98 140.5 300C140.5 305.705 140.798 311.341 141.381 316.891C142.82 330.61 135.117 344.314 121.793 347.884C108.462 351.456 94.6028 343.545 92.6382 329.885C91.4262 321.457 90.7283 312.975 90.5468 304.493C90.1238 284.724 92.493 264.91 97.6543 245.648C105.465 216.499 119.444 189.453 138.559 166.301C145.591 157.783 145.675 145.176 137.865 137.365C130.054 129.555 117.323 129.506 110.158 137.912C72.9552 181.558 50.4995 238.156 50.4995 300C50.4995 360.047 71.6695 415.15 106.953 458.252ZM438.005 61.8367C431.109 73.7814 435.282 88.9575 446.473 97.0196C485.995 125.492 516.866 165.223 534.389 211.514C539.271 224.413 552.845 232.385 566.168 228.816C579.484 225.247 587.486 211.514 582.824 198.54C578.813 187.377 574.158 176.503 568.896 165.968C551.748 131.631 528.161 100.892 499.433 75.441C490.63 67.6424 481.337 60.3363 471.6 53.5761C460.262 45.7045 444.906 49.8834 438.005 61.8367ZM575.5 300.001C589.307 300.001 600.609 311.213 599.46 324.972C598.476 336.757 596.797 348.453 594.44 360.001C588.007 391.515 576.522 421.919 560.309 450.001C533.978 495.607 496.107 533.478 450.501 559.809C404.895 586.139 353.162 600.001 300.501 600.001C268.075 600.001 236.001 594.745 205.493 584.56C194.304 580.824 183.326 576.425 172.618 571.379C160.144 565.501 156.09 550.128 162.985 538.186C169.884 526.236 185.127 522.275 197.702 527.955C223.302 539.518 251.198 546.895 280.518 549.213C291.529 550.084 300.499 541.046 300.499 530C300.499 518.954 291.524 510.099 280.529 509.048C250.642 506.193 221.633 496.954 195.499 481.865C178.229 471.894 162.543 459.559 148.863 445.282C142.992 439.153 137.489 432.666 132.39 425.855C124.116 414.803 128.326 399.404 140.283 392.501C152.232 385.602 167.373 389.845 176.052 400.571C205.102 436.473 249.373 459.552 299.048 459.994L299.148 459.994L299.348 459.996L299.475 459.997C299.593 459.997 299.712 459.998 299.83 459.999C299.931 459.999 300.032 459.999 300.133 460C300.255 460 300.377 460 300.5 460C350.765 460 395.617 436.821 424.949 400.569C433.626 389.844 448.765 385.602 460.712 392.499C472.669 399.403 476.877 414.803 468.603 425.856C463.502 432.67 457.999 439.161 452.134 445.282C438.455 459.559 422.769 471.894 405.499 481.865C395.358 487.72 384.784 492.694 373.894 496.756C363.545 500.617 357.179 511.53 360.037 522.199C362.895 532.864 373.901 539.308 384.304 535.608C473.646 503.827 539.579 422.67 549.268 324.971C550.631 311.232 561.693 300.001 575.5 300.001ZM460.5 300C460.5 279.738 456.733 260.355 449.862 242.514C444.902 229.634 448.782 214.388 460.735 207.487C472.681 200.591 488.107 204.64 493.538 217.319C496.898 225.163 499.765 233.179 502.135 241.32C508.103 261.83 510.908 283.137 510.451 304.493C510.27 312.966 509.576 321.447 508.362 329.888C506.397 343.548 492.537 351.456 479.207 347.885C465.883 344.315 458.179 330.609 459.619 316.891C460.201 311.34 460.5 305.705 460.5 300ZM390.98 143.282C385.197 153.298 388.755 166.022 397.924 173.071C407.1 180.124 420.27 180.228 428.454 172.045L433.004 167.494C441.691 158.808 441.309 144.611 432.167 136.405C431.065 135.517 429.954 134.641 428.834 133.777C427.458 132.715 426.069 131.669 424.667 130.642C414.254 123.847 400.272 127.188 394.055 137.956L390.98 143.282ZM300.5 420C366.775 420 420.5 366.274 420.5 300C420.5 233.726 366.775 180 300.5 180C234.226 180 180.5 233.726 180.5 300C180.5 366.274 234.226 420 300.5 420Z" fill="#035E5D"/>
<path d="M336.094 269.918C338.698 269.918 340.592 272.391 339.913 274.906L338.194 281.266C337.572 283.567 335.485 285.165 333.102 285.165H324.805C324.252 288.915 323.281 292.376 321.893 295.549C319.64 300.769 315.986 305.027 310.931 308.324C305.876 311.621 299.228 313.819 290.986 314.918L309.406 336.882L318.617 347.864L323.222 353.355L325.524 356.101C326.817 357.647 325.717 360 323.701 360H305.134C303.584 360 302.112 359.318 301.109 358.135L264.533 314.956C262.934 313.067 262.049 310.677 262.034 308.203L262.008 304.154C261.99 301.228 264.357 298.846 267.283 298.846H281.591C286.371 298.846 290.299 297.967 293.376 296.209C296.508 294.396 298.843 291.951 300.382 288.874C300.993 287.694 301.487 286.458 301.863 285.165H266.593C263.109 285.165 260.582 281.847 261.508 278.488L262.803 273.79C263.434 271.503 265.515 269.918 267.888 269.918H301.455C301.213 269.209 300.938 268.522 300.629 267.857C299.2 264.725 296.92 262.28 293.788 260.522C290.656 258.764 286.508 257.885 281.343 257.885H266.589C263.132 257.885 260.609 254.614 261.487 251.27L263.414 243.935C264.023 241.616 266.119 240 268.516 240H277.635H334.418C337.902 240 340.429 243.318 339.503 246.677L338.208 251.374C337.577 253.662 335.496 255.247 333.123 255.247H319.158C319.599 255.887 320.016 256.546 320.409 257.225C322.616 260.939 324.084 265.17 324.813 269.918H336.094Z" fill="#FFF000"/>
</g>
<defs>
<clipPath id="clip0_150_205">
<rect width="600" height="600" fill="white" transform="translate(0.5)"/>
</clipPath>
</defs>
</svg>
