<svg width="134" height="28" viewBox="0 0 134 28" fill="none" xmlns="http://www.w3.org/2000/svg">
<g clip-path="url(#clip0_56_315)">
<g clip-path="url(#clip1_56_315)">
<path d="M4.76151 21.1813C5.15839 21.6662 5.16341 22.3812 4.72037 22.8242C4.27734 23.2673 3.55495 23.2701 3.15032 22.7918C2.8034 22.3816 2.48201 21.9524 2.18739 21.5067C1.05517 19.7936 0.31838 17.8362 0.0472731 15.777C-0.343895 12.8058 0.256276 9.78849 1.7547 7.19313C3.25313 4.59777 5.56608 2.56937 8.33481 1.42252C10.2537 0.627677 12.3173 0.287067 14.3669 0.411081C14.9006 0.443371 15.4333 0.50716 15.9623 0.602632C16.5784 0.713811 16.9367 1.34028 16.7747 1.94492C16.6128 2.5493 15.992 2.90216 15.3744 2.802C14.7787 2.7054 14.1675 2.65518 13.5445 2.65518C11.8009 2.65518 10.1493 3.04851 8.67333 3.75126C8.22107 3.96661 8.07474 4.5261 8.3252 4.9599C8.57582 5.39399 9.13011 5.53957 9.58606 5.33136C10.0658 5.11227 10.5647 4.93259 11.078 4.79506C11.9521 4.56085 12.8513 4.45333 13.7483 4.47253C14.1336 4.48077 14.5184 4.51238 14.9008 4.56736C15.5206 4.65649 15.8795 5.28545 15.7174 5.89036C15.5554 6.49501 14.9335 6.84459 14.3109 6.77928C14.0591 6.75286 13.8034 6.73931 13.5445 6.73931C11.5395 6.73931 9.72431 7.55198 8.41039 8.86591C8.346 8.9303 8.2829 8.99582 8.22112 9.06243C7.01889 10.358 6.28383 12.0932 6.28383 14C6.28383 14.2589 6.29738 14.5146 6.32381 14.7665C6.38912 15.389 6.03956 16.0109 5.43496 16.1729C4.83001 16.335 4.20107 15.976 4.11191 15.3561C4.05692 14.9737 4.02524 14.5888 4.01701 14.2039C3.99781 13.3068 4.10532 12.4076 4.33954 11.5335C4.69397 10.2108 5.32835 8.98344 6.19575 7.93283C6.51487 7.5463 6.51869 6.97418 6.16426 6.61975C5.80983 6.26532 5.23208 6.26312 4.90693 6.64458C3.21871 8.62516 2.19969 11.1936 2.19969 14C2.19969 16.7249 3.16037 19.2254 4.76151 21.1813Z" fill="#035E5D"/>
<path d="M4.76151 21.1813C5.15839 21.6662 5.16341 22.3812 4.72037 22.8242C4.27734 23.2673 3.55495 23.2701 3.15032 22.7918C2.8034 22.3816 2.48201 21.9524 2.18739 21.5067C1.05517 19.7936 0.31838 17.8362 0.0472731 15.777C-0.343895 12.8058 0.256276 9.78849 1.7547 7.19313C3.25313 4.59777 5.56608 2.56937 8.33481 1.42252C10.2537 0.627677 12.3173 0.287067 14.3669 0.411081C14.9006 0.443371 15.4333 0.50716 15.9623 0.602632C16.5784 0.713811 16.9367 1.34028 16.7747 1.94492C16.6128 2.5493 15.992 2.90216 15.3744 2.802C14.7787 2.7054 14.1675 2.65518 13.5445 2.65518C11.8009 2.65518 10.1493 3.04851 8.67333 3.75126C8.22107 3.96661 8.07474 4.5261 8.3252 4.9599C8.57582 5.39399 9.13011 5.53957 9.58606 5.33136C10.0658 5.11227 10.5647 4.93259 11.078 4.79506C11.9521 4.56085 12.8513 4.45333 13.7483 4.47253C14.1336 4.48077 14.5184 4.51238 14.9008 4.56736C15.5206 4.65649 15.8795 5.28545 15.7174 5.89036C15.5554 6.49501 14.9335 6.84459 14.3109 6.77928C14.0591 6.75286 13.8034 6.73931 13.5445 6.73931C11.5395 6.73931 9.72431 7.55198 8.41039 8.86591C8.346 8.9303 8.2829 8.99582 8.22112 9.06243C7.01889 10.358 6.28383 12.0932 6.28383 14C6.28383 14.2589 6.29738 14.5146 6.32381 14.7665C6.38912 15.389 6.03956 16.0109 5.43496 16.1729C4.83001 16.335 4.20107 15.976 4.11191 15.3561C4.05692 14.9737 4.02524 14.5888 4.01701 14.2039C3.99781 13.3068 4.10532 12.4076 4.33954 11.5335C4.69397 10.2108 5.32835 8.98344 6.19575 7.93283C6.51487 7.5463 6.51869 6.97418 6.16426 6.61975C5.80983 6.26532 5.23208 6.26312 4.90693 6.64458C3.21871 8.62516 2.19969 11.1936 2.19969 14C2.19969 16.7249 3.16037 19.2254 4.76151 21.1813Z" fill="url(#paint0_linear_56_315)"/>
<path d="M19.7844 3.19232C19.4715 3.73436 19.6608 4.42304 20.1687 4.78889C21.9622 6.08095 23.3631 7.8839 24.1582 9.98457C24.3798 10.5699 24.9958 10.9317 25.6003 10.7697C26.2046 10.6078 26.5677 9.98455 26.3562 9.39581C26.1741 8.88922 25.9629 8.39579 25.7241 7.91772C24.946 6.35954 23.8756 4.9646 22.5719 3.80967C22.1725 3.45578 21.7508 3.12423 21.3089 2.81746C20.7944 2.46025 20.0976 2.64989 19.7844 3.19232Z" fill="#035E5D"/>
<path d="M19.7844 3.19232C19.4715 3.73436 19.6608 4.42304 20.1687 4.78889C21.9622 6.08095 23.3631 7.8839 24.1582 9.98457C24.3798 10.5699 24.9958 10.9317 25.6003 10.7697C26.2046 10.6078 26.5677 9.98455 26.3562 9.39581C26.1741 8.88922 25.9629 8.39579 25.7241 7.91772C24.946 6.35954 23.8756 4.9646 22.5719 3.80967C22.1725 3.45578 21.7508 3.12423 21.3089 2.81746C20.7944 2.46025 20.0976 2.64989 19.7844 3.19232Z" fill="url(#paint1_linear_56_315)"/>
<path d="M26.0238 14C26.6504 14 27.1633 14.5088 27.1111 15.1332C27.0664 15.668 26.9903 16.1988 26.8833 16.7228C26.5914 18.1529 26.0702 19.5326 25.3344 20.8069C24.1396 22.8765 22.421 24.595 20.3515 25.7899C18.2819 26.9848 15.9343 27.6138 13.5446 27.6138C12.0731 27.6138 10.6176 27.3753 9.23319 26.9131C8.72544 26.7436 8.22725 26.5439 7.74134 26.315C7.17529 26.0482 6.99132 25.3506 7.3042 24.8087C7.61727 24.2664 8.30896 24.0867 8.87961 24.3444C10.0413 24.8691 11.3072 25.2039 12.6378 25.3091C13.1374 25.3486 13.5445 24.9385 13.5445 24.4372C13.5445 23.936 13.1372 23.5341 12.6382 23.4864C11.282 23.3569 9.9656 22.9376 8.77964 22.2529C7.99594 21.8004 7.28413 21.2407 6.66337 20.5928C6.39691 20.3146 6.14723 20.0203 5.91583 19.7112C5.54035 19.2097 5.73141 18.5109 6.27399 18.1976C6.81622 17.8845 7.50334 18.0771 7.89717 18.5638C9.21544 20.193 11.2244 21.2403 13.4787 21.2604L13.4832 21.2604L13.498 21.2605C13.5034 21.2606 13.5088 21.2606 13.5141 21.2606C13.5187 21.2606 13.5233 21.2606 13.5279 21.2606C13.5334 21.2607 13.539 21.2607 13.5445 21.2607C15.8255 21.2607 17.8608 20.2088 19.1919 18.5637C19.5857 18.0771 20.2727 17.8845 20.8148 18.1975C21.3574 18.5108 21.5484 19.2097 21.1729 19.7112C20.9414 20.0205 20.6917 20.315 20.4256 20.5928C19.8048 21.2407 19.093 21.8004 18.3093 22.2529C17.8491 22.5186 17.3693 22.7443 16.8751 22.9286C16.4055 23.1038 16.1166 23.599 16.2463 24.0832C16.376 24.5672 16.8754 24.8596 17.3475 24.6917C21.4018 23.2495 24.3938 19.5667 24.8334 15.1332C24.8953 14.5097 25.3973 14 26.0238 14Z" fill="#035E5D"/>
<path d="M26.0238 14C26.6504 14 27.1633 14.5088 27.1111 15.1332C27.0664 15.668 26.9903 16.1988 26.8833 16.7228C26.5914 18.1529 26.0702 19.5326 25.3344 20.8069C24.1396 22.8765 22.421 24.595 20.3515 25.7899C18.2819 26.9848 15.9343 27.6138 13.5446 27.6138C12.0731 27.6138 10.6176 27.3753 9.23319 26.9131C8.72544 26.7436 8.22725 26.5439 7.74134 26.315C7.17529 26.0482 6.99132 25.3506 7.3042 24.8087C7.61727 24.2664 8.30896 24.0867 8.87961 24.3444C10.0413 24.8691 11.3072 25.2039 12.6378 25.3091C13.1374 25.3486 13.5445 24.9385 13.5445 24.4372C13.5445 23.936 13.1372 23.5341 12.6382 23.4864C11.282 23.3569 9.9656 22.9376 8.77964 22.2529C7.99594 21.8004 7.28413 21.2407 6.66337 20.5928C6.39691 20.3146 6.14723 20.0203 5.91583 19.7112C5.54035 19.2097 5.73141 18.5109 6.27399 18.1976C6.81622 17.8845 7.50334 18.0771 7.89717 18.5638C9.21544 20.193 11.2244 21.2403 13.4787 21.2604L13.4832 21.2604L13.498 21.2605C13.5034 21.2606 13.5088 21.2606 13.5141 21.2606C13.5187 21.2606 13.5233 21.2606 13.5279 21.2606C13.5334 21.2607 13.539 21.2607 13.5445 21.2607C15.8255 21.2607 17.8608 20.2088 19.1919 18.5637C19.5857 18.0771 20.2727 17.8845 20.8148 18.1975C21.3574 18.5108 21.5484 19.2097 21.1729 19.7112C20.9414 20.0205 20.6917 20.315 20.4256 20.5928C19.8048 21.2407 19.093 21.8004 18.3093 22.2529C17.8491 22.5186 17.3693 22.7443 16.8751 22.9286C16.4055 23.1038 16.1166 23.599 16.2463 24.0832C16.376 24.5672 16.8754 24.8596 17.3475 24.6917C21.4018 23.2495 24.3938 19.5667 24.8334 15.1332C24.8953 14.5097 25.3973 14 26.0238 14Z" fill="url(#paint2_linear_56_315)"/>
<path d="M20.8052 14C20.8052 13.0805 20.6343 12.2009 20.3225 11.3913C20.0974 10.8068 20.2735 10.115 20.8159 9.80183C21.3579 9.48887 22.058 9.67263 22.3044 10.248C22.4569 10.6039 22.587 10.9677 22.6945 11.3372C22.9654 12.2679 23.0927 13.2348 23.072 14.2039C23.0637 14.5884 23.0322 14.9732 22.9771 15.3563C22.888 15.9762 22.259 16.335 21.6541 16.173C21.0495 16.0109 20.6999 15.389 20.7652 14.7665C20.7916 14.5146 20.8052 14.2589 20.8052 14Z" fill="#035E5D"/>
<path d="M20.8052 14C20.8052 13.0805 20.6343 12.2009 20.3225 11.3913C20.0974 10.8068 20.2735 10.115 20.8159 9.80183C21.3579 9.48887 22.058 9.67263 22.3044 10.248C22.4569 10.6039 22.587 10.9677 22.6945 11.3372C22.9654 12.2679 23.0927 13.2348 23.072 14.2039C23.0637 14.5884 23.0322 14.9732 22.9771 15.3563C22.888 15.9762 22.259 16.335 21.6541 16.173C21.0495 16.0109 20.6999 15.389 20.7652 14.7665C20.7916 14.5146 20.8052 14.2589 20.8052 14Z" fill="url(#paint3_linear_56_315)"/>
<path d="M17.6504 6.88823C17.388 7.34275 17.5495 7.92018 17.9656 8.24004C18.3819 8.56011 18.9796 8.56485 19.351 8.19349L19.5575 7.98698C19.9517 7.5928 19.9343 6.94855 19.5195 6.57615C19.4695 6.5359 19.419 6.49615 19.3682 6.45691C19.3058 6.40871 19.2427 6.36128 19.1791 6.31464C18.7066 6.00632 18.0721 6.15792 17.79 6.64656L17.6504 6.88823Z" fill="#035E5D"/>
<path d="M17.6504 6.88823C17.388 7.34275 17.5495 7.92018 17.9656 8.24004C18.3819 8.56011 18.9796 8.56485 19.351 8.19349L19.5575 7.98698C19.9517 7.5928 19.9343 6.94855 19.5195 6.57615C19.4695 6.5359 19.419 6.49615 19.3682 6.45691C19.3058 6.40871 19.2427 6.36128 19.1791 6.31464C18.7066 6.00632 18.0721 6.15792 17.79 6.64656L17.6504 6.88823Z" fill="url(#paint4_linear_56_315)"/>
<path d="M13.5445 19.4455C16.552 19.4455 18.9901 17.0075 18.9901 14C18.9901 10.9925 16.552 8.55449 13.5445 8.55449C10.5371 8.55449 8.09904 10.9925 8.09904 14C8.09904 17.0075 10.5371 19.4455 13.5445 19.4455Z" fill="#035E5D"/>
<path d="M13.5445 19.4455C16.552 19.4455 18.9901 17.0075 18.9901 14C18.9901 10.9925 16.552 8.55449 13.5445 8.55449C10.5371 8.55449 8.09904 10.9925 8.09904 14C8.09904 17.0075 10.5371 19.4455 13.5445 19.4455Z" fill="url(#paint5_linear_56_315)"/>
<path d="M15.1521 12.6349C15.2703 12.6349 15.3563 12.7471 15.3254 12.8612L15.2474 13.1499C15.2192 13.2543 15.1245 13.3268 15.0163 13.3268H14.6398C14.6147 13.497 14.5707 13.654 14.5077 13.798C14.4055 14.0349 14.2397 14.2281 14.0103 14.3778C13.7809 14.5274 13.4792 14.6271 13.1052 14.677L13.9411 15.6737L14.359 16.172L14.568 16.4212L14.6725 16.5458C14.7312 16.616 14.6812 16.7228 14.5898 16.7228H13.7472C13.6768 16.7228 13.61 16.6918 13.5646 16.6381L11.9048 14.6787C11.8322 14.593 11.792 14.4845 11.7913 14.3722L11.7902 14.1885C11.7894 14.0557 11.8968 13.9476 12.0295 13.9476H12.6788C12.8957 13.9476 13.074 13.9078 13.2136 13.828C13.3558 13.7457 13.4617 13.6347 13.5315 13.4951C13.5593 13.4416 13.5817 13.3855 13.5988 13.3268H11.9982C11.8401 13.3268 11.7255 13.1762 11.7675 13.0238L11.8263 12.8106C11.8549 12.7068 11.9493 12.6349 12.057 12.6349H13.5803C13.5693 12.6027 13.5568 12.5716 13.5428 12.5414C13.4779 12.3993 13.3745 12.2883 13.2323 12.2085C13.0902 12.1287 12.902 12.0888 12.6676 12.0888H11.9981C11.8412 12.0888 11.7267 11.9404 11.7665 11.7887L11.854 11.4558C11.8816 11.3506 11.9767 11.2773 12.0855 11.2773H12.4993H15.0761C15.2342 11.2773 15.3488 11.4278 15.3068 11.5802L15.2481 11.7934C15.2194 11.8972 15.125 11.9692 15.0173 11.9692H14.3836C14.4036 11.9982 14.4225 12.0281 14.4404 12.0589C14.5405 12.2275 14.6071 12.4194 14.6402 12.6349H15.1521Z" fill="#035E5D"/>
</g>
<path d="M39.2523 20.4207C35.1971 20.4207 32.3328 17.6689 32.3328 13.6138V8.06903C32.3328 7.54972 32.7537 7.12874 33.2731 7.12874H34.8844C35.4037 7.12874 35.8247 7.54973 35.8247 8.06903V13.6138C35.8247 15.6092 37.3213 17.1701 39.3166 17.1701C41.3764 17.1701 42.8086 15.6092 42.8086 13.6138V8.06903C42.8086 7.54972 43.2296 7.12874 43.7489 7.12874H45.3603C45.8796 7.12874 46.3005 7.54973 46.3005 8.06903V13.6138C46.3005 17.6689 42.8086 20.4207 39.2523 20.4207Z" fill="url(#paint6_linear_56_315)"/>
<path d="M48.85 20.0988C48.3307 20.0988 47.9097 19.6778 47.9097 19.1585V13.6138C47.9097 9.55861 51.4017 6.80689 54.958 6.80689C59.0131 6.80689 61.8775 9.55861 61.8775 13.6138V19.1585C61.8775 19.6778 61.4565 20.0988 60.9372 20.0988H59.3258C58.8065 20.0988 58.3855 19.6778 58.3855 19.1585V13.6138C58.3855 11.554 56.9534 10.0575 54.8936 10.0575C52.8982 10.0575 51.4017 11.554 51.4017 13.6138V19.1585C51.4017 19.6778 50.9807 20.0988 50.4614 20.0988H48.85Z" fill="url(#paint7_linear_56_315)"/>
<path d="M64.4268 20.0988C63.9075 20.0988 63.4866 19.6778 63.4866 19.1585V13.6138C63.4866 9.55861 66.9785 6.80689 70.5348 6.80689C72.7877 6.80689 74.59 7.61149 75.8451 8.99539C77.1486 7.62758 79.0957 6.80689 81.0267 6.80689C85.0819 6.80689 87.9462 9.55861 87.9462 13.6138V19.1585C87.9462 19.6778 87.5253 20.0988 87.006 20.0988H85.3946C84.8753 20.0988 84.4543 19.6778 84.4543 19.1585V13.6138C84.4543 11.554 82.9578 10.0575 80.9624 10.0575C78.9026 10.0575 77.4704 11.554 77.4704 13.6138V19.1585C77.4704 19.6778 77.0494 20.0988 76.5301 20.0988H74.9188C74.3995 20.0988 73.9785 19.6778 73.9785 19.1585V13.6138C73.9785 11.554 72.5463 10.0575 70.4865 10.0575C68.4911 10.0575 66.9946 11.554 66.9946 13.6138V19.1585C66.9946 19.6778 66.5736 20.0988 66.0543 20.0988H64.4268Z" fill="url(#paint8_linear_56_315)"/>
<path d="M96.2337 20.4206C92.3072 20.4206 89.5555 17.6689 89.5555 13.6138C89.5555 9.86435 92.8061 6.80689 96.5394 6.80689C100.595 6.80689 103.523 9.55861 103.523 13.6138V19.1585C103.523 19.6778 103.102 20.0988 102.583 20.0988H101.036C100.517 20.0988 100.096 19.6778 100.096 19.1585V18.9724C99.2911 19.8574 97.8589 20.4206 96.2337 20.4206ZM96.5555 17.1701C98.6152 17.1701 100.047 15.6092 100.047 13.6138C100.047 11.554 98.6152 10.0575 96.5555 10.0575C94.5601 10.0575 93.0635 11.554 93.0635 13.6138C93.0635 15.6092 94.5601 17.1701 96.5555 17.1701Z" fill="url(#paint9_linear_56_315)"/>
<path d="M106.072 20.0988C105.552 20.0988 105.131 19.6778 105.131 19.1585V17.6705C105.131 17.3939 105.253 17.1314 105.464 16.9528L113.612 10.0575H106.249C105.729 10.0575 105.308 9.63648 105.308 9.11717V8.06902C105.308 7.54972 105.729 7.12874 106.249 7.12874H117.161C117.68 7.12874 118.101 7.54972 118.101 8.06902V9.49518C118.101 9.7703 117.981 10.0316 117.772 10.2103L109.621 17.1701H117.483C118.002 17.1701 118.423 17.5911 118.423 18.1104V19.1585C118.423 19.6778 118.002 20.0988 117.483 20.0988H106.072Z" fill="url(#paint10_linear_56_315)"/>
<path d="M127.016 20.4206C122.961 20.4206 120.032 17.6689 120.032 13.6138C120.032 9.86435 123.283 6.80688 127.016 6.80688C131.071 6.80688 133.759 9.3655 134 13.6138V13.8643C134 14.3836 133.579 14.8046 133.06 14.8046H123.46C123.894 16.3655 125.262 17.4275 127.016 17.4275C127.836 17.4275 128.392 17.2655 128.994 16.8358C129.413 16.5366 129.992 16.5341 130.351 16.9037L131.178 17.7562C131.538 18.1266 131.535 18.7236 131.123 19.0351C129.97 19.9079 128.553 20.4206 127.016 20.4206ZM123.524 12.1172H130.572C130.074 10.6207 128.818 9.62297 127.016 9.62297C125.262 9.62297 124.023 10.685 123.524 12.1172Z" fill="url(#paint11_linear_56_315)"/>
</g>
<defs>
<linearGradient id="paint0_linear_56_315" x1="-18.5613" y1="14" x2="43.699" y2="14" gradientUnits="userSpaceOnUse">
<stop offset="0.12976" stop-color="#CCFD62"/>
<stop offset="0.770345" stop-color="#FFF000"/>
</linearGradient>
<linearGradient id="paint1_linear_56_315" x1="-18.5613" y1="14" x2="43.699" y2="14" gradientUnits="userSpaceOnUse">
<stop offset="0.12976" stop-color="#CCFD62"/>
<stop offset="0.770345" stop-color="#FFF000"/>
</linearGradient>
<linearGradient id="paint2_linear_56_315" x1="-18.5613" y1="14" x2="43.699" y2="14" gradientUnits="userSpaceOnUse">
<stop offset="0.12976" stop-color="#CCFD62"/>
<stop offset="0.770345" stop-color="#FFF000"/>
</linearGradient>
<linearGradient id="paint3_linear_56_315" x1="-18.5613" y1="14" x2="43.699" y2="14" gradientUnits="userSpaceOnUse">
<stop offset="0.12976" stop-color="#CCFD62"/>
<stop offset="0.770345" stop-color="#FFF000"/>
</linearGradient>
<linearGradient id="paint4_linear_56_315" x1="-18.5613" y1="14" x2="43.699" y2="14" gradientUnits="userSpaceOnUse">
<stop offset="0.12976" stop-color="#CCFD62"/>
<stop offset="0.770345" stop-color="#FFF000"/>
</linearGradient>
<linearGradient id="paint5_linear_56_315" x1="-18.5613" y1="14" x2="43.699" y2="14" gradientUnits="userSpaceOnUse">
<stop offset="0.12976" stop-color="#CCFD62"/>
<stop offset="0.770345" stop-color="#FFF000"/>
</linearGradient>
<linearGradient id="paint6_linear_56_315" x1="10.5307" y1="13.6414" x2="85.8644" y2="-57.9059" gradientUnits="userSpaceOnUse">
<stop offset="0.0306645" stop-color="#FFF000"/>
<stop offset="0.796027" stop-color="#CCFD62"/>
</linearGradient>
<linearGradient id="paint7_linear_56_315" x1="10.5307" y1="13.6414" x2="85.8644" y2="-57.9059" gradientUnits="userSpaceOnUse">
<stop offset="0.0306645" stop-color="#FFF000"/>
<stop offset="0.796027" stop-color="#CCFD62"/>
</linearGradient>
<linearGradient id="paint8_linear_56_315" x1="10.5307" y1="13.6414" x2="85.8644" y2="-57.9059" gradientUnits="userSpaceOnUse">
<stop offset="0.0306645" stop-color="#FFF000"/>
<stop offset="0.796027" stop-color="#CCFD62"/>
</linearGradient>
<linearGradient id="paint9_linear_56_315" x1="10.5307" y1="13.6414" x2="85.8644" y2="-57.9059" gradientUnits="userSpaceOnUse">
<stop offset="0.0306645" stop-color="#FFF000"/>
<stop offset="0.796027" stop-color="#CCFD62"/>
</linearGradient>
<linearGradient id="paint10_linear_56_315" x1="10.5307" y1="13.6414" x2="85.8644" y2="-57.9059" gradientUnits="userSpaceOnUse">
<stop offset="0.0306645" stop-color="#FFF000"/>
<stop offset="0.796027" stop-color="#CCFD62"/>
</linearGradient>
<linearGradient id="paint11_linear_56_315" x1="10.5307" y1="13.6414" x2="85.8644" y2="-57.9059" gradientUnits="userSpaceOnUse">
<stop offset="0.0306645" stop-color="#FFF000"/>
<stop offset="0.796027" stop-color="#CCFD62"/>
</linearGradient>
<clipPath id="clip0_56_315">
<rect width="134" height="27.2275" fill="white"/>
</clipPath>
<clipPath id="clip1_56_315">
<rect width="27.2275" height="27.2275" fill="white"/>
</clipPath>
</defs>
</svg>
