<svg width="16" height="16" viewBox="0 0 16 16" fill="none" xmlns="http://www.w3.org/2000/svg">
<g id="Star 5">
<path d="M7.19532 0.988601C7.41671 0.166367 8.58329 0.166369 8.80468 0.988604L9.99658 5.4154C10.0738 5.70219 10.2978 5.9262 10.5846 6.00342L15.0114 7.19532C15.8336 7.41671 15.8336 8.58329 15.0114 8.80468L10.5846 9.99658C10.2978 10.0738 10.0738 10.2978 9.99658 10.5846L8.80468 15.0114C8.58329 15.8336 7.41671 15.8336 7.19532 15.0114L6.00342 10.5846C5.9262 10.2978 5.70218 10.0738 5.4154 9.99658L0.988601 8.80468C0.166367 8.58329 0.166369 7.41671 0.988604 7.19532L5.4154 6.00342C5.70219 5.9262 5.9262 5.70218 6.00342 5.4154L7.19532 0.988601Z" fill="url(#paint0_diamond_56_184)"/>
<path d="M7.19532 0.988601C7.41671 0.166367 8.58329 0.166369 8.80468 0.988604L9.99658 5.4154C10.0738 5.70219 10.2978 5.9262 10.5846 6.00342L15.0114 7.19532C15.8336 7.41671 15.8336 8.58329 15.0114 8.80468L10.5846 9.99658C10.2978 10.0738 10.0738 10.2978 9.99658 10.5846L8.80468 15.0114C8.58329 15.8336 7.41671 15.8336 7.19532 15.0114L6.00342 10.5846C5.9262 10.2978 5.70218 10.0738 5.4154 9.99658L0.988601 8.80468C0.166367 8.58329 0.166369 7.41671 0.988604 7.19532L5.4154 6.00342C5.70219 5.9262 5.9262 5.70218 6.00342 5.4154L7.19532 0.988601Z" fill="#FFF000"/>
<path d="M7.19532 0.988601C7.41671 0.166367 8.58329 0.166369 8.80468 0.988604L9.99658 5.4154C10.0738 5.70219 10.2978 5.9262 10.5846 6.00342L15.0114 7.19532C15.8336 7.41671 15.8336 8.58329 15.0114 8.80468L10.5846 9.99658C10.2978 10.0738 10.0738 10.2978 9.99658 10.5846L8.80468 15.0114C8.58329 15.8336 7.41671 15.8336 7.19532 15.0114L6.00342 10.5846C5.9262 10.2978 5.70218 10.0738 5.4154 9.99658L0.988601 8.80468C0.166367 8.58329 0.166369 7.41671 0.988604 7.19532L5.4154 6.00342C5.70219 5.9262 5.9262 5.70218 6.00342 5.4154L7.19532 0.988601Z" fill="#035E5D"/>
</g>
<defs>
<radialGradient id="paint0_diamond_56_184" cx="0" cy="0" r="1" gradientUnits="userSpaceOnUse" gradientTransform="translate(8 8) rotate(90) scale(8.75)">
<stop offset="0.00706229" stop-color="#035E5D"/>
<stop offset="0.752651" stop-color="#FFF000"/>
</radialGradient>
</defs>
</svg>
