<svg width="16" height="17" viewBox="0 0 16 17" fill="none" xmlns="http://www.w3.org/2000/svg">
<g id="Star 5">
<path d="M7.19532 1.4886C7.41671 0.666367 8.58329 0.666369 8.80468 1.4886L9.99658 5.9154C10.0738 6.20219 10.2978 6.4262 10.5846 6.50342L15.0114 7.69532C15.8336 7.91671 15.8336 9.08329 15.0114 9.30468L10.5846 10.4966C10.2978 10.5738 10.0738 10.7978 9.99658 11.0846L8.80468 15.5114C8.58329 16.3336 7.41671 16.3336 7.19532 15.5114L6.00342 11.0846C5.9262 10.7978 5.70218 10.5738 5.4154 10.4966L0.988601 9.30468C0.166367 9.08329 0.166369 7.91671 0.988604 7.69532L5.4154 6.50342C5.70219 6.4262 5.9262 6.20218 6.00342 5.9154L7.19532 1.4886Z" fill="url(#paint0_diamond_56_213)"/>
<path d="M7.19532 1.4886C7.41671 0.666367 8.58329 0.666369 8.80468 1.4886L9.99658 5.9154C10.0738 6.20219 10.2978 6.4262 10.5846 6.50342L15.0114 7.69532C15.8336 7.91671 15.8336 9.08329 15.0114 9.30468L10.5846 10.4966C10.2978 10.5738 10.0738 10.7978 9.99658 11.0846L8.80468 15.5114C8.58329 16.3336 7.41671 16.3336 7.19532 15.5114L6.00342 11.0846C5.9262 10.7978 5.70218 10.5738 5.4154 10.4966L0.988601 9.30468C0.166367 9.08329 0.166369 7.91671 0.988604 7.69532L5.4154 6.50342C5.70219 6.4262 5.9262 6.20218 6.00342 5.9154L7.19532 1.4886Z" fill="#FFF000"/>
</g>
<defs>
<radialGradient id="paint0_diamond_56_213" cx="0" cy="0" r="1" gradientUnits="userSpaceOnUse" gradientTransform="translate(8 8.5) rotate(90) scale(8.75)">
<stop offset="0.00706229" stop-color="#035E5D"/>
<stop offset="0.752651" stop-color="#FFF000"/>
</radialGradient>
</defs>
</svg>
