<svg width="178" height="36" viewBox="0 0 178 36" fill="none" xmlns="http://www.w3.org/2000/svg">
<g id="Clip path group">
<mask id="mask0_35_1107" style="mask-type:luminance" maskUnits="userSpaceOnUse" x="0" y="0" width="178" height="36">
<g id="clip0_34_1011">
<path id="Vector" d="M177.586 0H0.413452V36H177.586V0Z" fill="white"/>
</g>
</mask>
<g mask="url(#mask0_35_1107)">
<g id="Group">
<g id="Clip path group_2">
<mask id="mask1_35_1107" style="mask-type:luminance" maskUnits="userSpaceOnUse" x="0" y="0" width="37" height="36">
<g id="clip1_34_1011">
<path id="Vector_2" d="M36.4135 0H0.413452V36H36.4135V0Z" fill="white"/>
</g>
</mask>
<g mask="url(#mask1_35_1107)">
<g id="Group_2">
<path id="Vector_3" d="M7.02057 27.4951C7.54532 28.1361 7.55196 29.0815 6.96617 29.6673C6.38039 30.2531 5.42526 30.2569 4.89026 29.6244C4.43156 29.0821 4.00663 28.5146 3.61709 27.9252C2.12008 25.6603 1.1459 23.0722 0.787441 20.3495C0.270242 16.421 1.06378 12.4316 3.04499 9.00002C5.0262 5.56846 8.08435 2.88653 11.7451 1.37018C14.2823 0.319239 17.0107 -0.131113 19.7207 0.0328569C20.4263 0.0755506 21.1307 0.159892 21.8301 0.286125C22.6446 0.433124 23.1185 1.26143 22.9043 2.06089C22.6902 2.86 21.8694 3.32653 21.0528 3.1941C20.2652 3.06638 19.457 2.99999 18.6333 2.99999C16.328 2.99999 14.1442 3.52004 12.1927 4.44922C11.5947 4.73394 11.4012 5.47369 11.7324 6.04726C12.0638 6.62121 12.7966 6.81369 13.3995 6.5384C14.0339 6.24873 14.6935 6.01116 15.3721 5.82932C16.5279 5.51964 17.7167 5.37749 18.9028 5.40287C19.4122 5.41377 19.921 5.45556 20.4265 5.52825C21.2461 5.64609 21.7207 6.4777 21.5063 7.27751C21.2921 8.07697 20.4698 8.53919 19.6467 8.45283C19.3137 8.41789 18.9756 8.39998 18.6333 8.39998C15.9823 8.39998 13.5823 9.47449 11.845 11.2118C11.7599 11.2969 11.6765 11.3835 11.5948 11.4716C10.0052 13.1846 9.03335 15.4788 9.03335 18C9.03335 18.3423 9.05127 18.6804 9.08622 19.0135C9.17258 19.8366 8.71039 20.6588 7.91099 20.873C7.11113 21.0873 6.27955 20.6127 6.16167 19.7931C6.08895 19.2874 6.04708 18.7785 6.03619 18.2695C6.01081 17.0834 6.15296 15.8946 6.46264 14.7389C6.93127 12.9899 7.77004 11.3672 8.9169 9.97804C9.33884 9.46698 9.34389 8.71052 8.87526 8.2419C8.40664 7.77328 7.64275 7.77037 7.21283 8.27474C4.98069 10.8934 3.63335 14.2894 3.63335 18C3.63335 21.6028 4.90355 24.909 7.02057 27.4951Z" fill="#035E5D"><animateTransform 
         attributeName="transform" 
         attributeType="XML" 
         type="rotate"
         dur="5s" r̥
         from="0 18.5 18"
         to="360 18.5 18" 
         repeatCount="indefinite" /></path>
<path id="Vector_4" d="M26.8836 3.71023C26.4699 4.42691 26.7203 5.33747 27.3917 5.8212C29.7631 7.52955 31.6153 9.91338 32.6667 12.6908C32.9596 13.4648 33.7741 13.9431 34.5734 13.7289C35.3724 13.5148 35.8525 12.6908 35.5728 11.9124C35.3321 11.2426 35.0528 10.5902 34.7371 9.9581C33.7082 7.8979 32.293 6.05352 30.5693 4.52648C30.0411 4.05857 29.4835 3.6202 28.8993 3.21459C28.2191 2.7423 27.2977 2.99303 26.8836 3.71023Z" fill="#035E5D"><animateTransform 
         attributeName="transform" 
         attributeType="XML" 
         type="rotate"
         dur="5s" 
         from="0 18.5 18"
         to="360 18.5 18" 
         repeatCount="indefinite" /></path>
<path id="Vector_5" d="M36.5711 19.4983C36.64 18.6727 35.9619 18 35.1335 18C34.305 18 33.6413 18.6739 33.5595 19.4983C32.9782 25.3602 29.0222 30.2296 23.6617 32.1364C23.0375 32.3585 22.3771 31.9718 22.2057 31.3319C22.0342 30.6918 22.4162 30.037 23.0371 29.8054C23.6905 29.5616 24.3249 29.2632 24.9334 28.9119C25.9696 28.3136 26.9107 27.5735 27.7315 26.7169C28.0834 26.3496 28.4135 25.9602 28.7196 25.5513C29.216 24.8882 28.9636 23.9641 28.2462 23.5499C27.5294 23.1361 26.621 23.3906 26.1004 24.0341C24.3404 26.2092 21.6493 27.6 18.6334 27.6C18.62 27.6 18.6066 27.6 18.5933 27.5999C18.5776 27.5998 18.562 27.5997 18.5463 27.5996C15.5658 27.5731 12.9096 26.1884 11.1666 24.0342C10.6458 23.3907 9.7373 23.1361 9.02037 23.55C8.30297 23.9642 8.05036 24.8882 8.54682 25.5513C8.85276 25.96 9.18289 26.3492 9.5352 26.7169C10.356 27.5735 11.2972 28.3136 12.3334 28.9119C13.9014 29.8172 15.642 30.3716 17.4352 30.5429C18.0949 30.6059 18.6334 31.1372 18.6334 31.8C18.6334 32.4627 18.0952 33.005 17.4345 32.9528C15.6753 32.8137 14.0016 32.371 12.4655 31.6773C11.711 31.3365 10.7965 31.5742 10.3825 32.2912C9.96882 33.0077 10.2121 33.93 10.9605 34.2827C11.603 34.5855 12.2617 34.8494 12.933 35.0736C14.7635 35.6847 16.688 36.0001 18.6335 36.0001C21.7932 36.0001 24.8972 35.1683 27.6335 33.5885C30.3699 32.0087 32.6421 29.7364 34.222 27C35.1947 25.3151 35.8839 23.4909 36.2698 21.6C36.4113 20.9072 36.512 20.2054 36.5711 19.4983Z" fill="#035E5D"><animateTransform 
         attributeName="transform" 
         attributeType="XML" 
         type="rotate"
         dur="5s" 
         from="0 18.5 18"
         to="360 18.5 18" 
         repeatCount="indefinite" /></path>
<path id="Vector_6" d="M28.2334 17.9999C28.2334 16.7841 28.0074 15.6212 27.5952 14.5507C27.2975 13.7779 27.5304 12.8632 28.2476 12.4491C28.9643 12.0353 29.8899 12.2783 30.2157 13.039C30.4173 13.5097 30.5894 13.9906 30.7315 14.4791C31.0896 15.7097 31.2579 16.9881 31.2305 18.2695C31.2197 18.7778 31.178 19.2867 31.1051 19.7932C30.9873 20.6128 30.1557 21.0873 29.3559 20.873C28.5564 20.6588 28.0942 19.8364 28.1806 19.0133C28.2155 18.6803 28.2334 18.3422 28.2334 17.9999Z" fill="#035E5D"><animateTransform 
         attributeName="transform" 
         attributeType="XML" 
         type="rotate"
         dur="5s" 
         from="0 18.5 18"
         to="360 18.5 18" 
         repeatCount="indefinite" /></path>
<path id="Vector_7" d="M24.4788 10.3842C23.9286 9.96132 23.7152 9.19785 24.0621 8.59689L24.2466 8.27735C24.6196 7.63128 25.4586 7.43082 26.0834 7.83849C26.1675 7.90015 26.2508 7.96286 26.3334 8.02659C26.4006 8.07847 26.4672 8.13103 26.5334 8.18426C27.0819 8.67664 27.1048 9.52845 26.5836 10.0496L26.3106 10.3227C25.8196 10.8137 25.0293 10.8074 24.4788 10.3842Z" fill="#035E5D"><animateTransform 
         attributeName="transform" 
         attributeType="XML" 
         type="rotate"
         dur="5s" 
         from="0 18.5 18"
         to="360 18.5 18" 
         repeatCount="indefinite" /></path>
<path id="Vector_8" d="M18.6335 25.2C22.6099 25.2 25.8335 21.9765 25.8335 18C25.8335 14.0236 22.6099 10.8 18.6335 10.8C14.657 10.8 11.4335 14.0236 11.4335 18C11.4335 21.9765 14.657 25.2 18.6335 25.2Z" fill="#035E5D"/>
<path id="Vector_9" d="M20.7691 16.195C20.9254 16.195 21.039 16.3434 20.9982 16.4942L20.8951 16.8759C20.8578 17.0139 20.7325 17.1098 20.5896 17.1098H20.0917C20.0586 17.3348 20.0003 17.5425 19.917 17.7329C19.7819 18.0461 19.5626 18.3016 19.2593 18.4994C18.956 18.6972 18.5571 18.829 18.0626 18.895L19.1678 20.2128L19.7205 20.8717L19.9968 21.2012L20.1349 21.3659C20.2125 21.4588 20.1465 21.5999 20.0255 21.5999H18.9115C18.8185 21.5999 18.7301 21.559 18.67 21.488L16.4754 18.8972C16.3795 18.784 16.3264 18.6405 16.3255 18.4921L16.324 18.2491C16.3229 18.0736 16.4649 17.9307 16.6404 17.9307H17.4989C17.7857 17.9307 18.0214 17.8779 18.206 17.7724C18.3939 17.6636 18.5341 17.5169 18.6264 17.3323C18.663 17.2615 18.6926 17.1874 18.7152 17.1098H16.599C16.39 17.1098 16.2384 16.9107 16.2939 16.7092L16.3716 16.4273C16.4095 16.2901 16.5343 16.195 16.6767 16.195H18.6908C18.6762 16.1524 18.6597 16.1112 18.6412 16.0713C18.5555 15.8834 18.4187 15.7367 18.2308 15.6312C18.0428 15.5257 17.7939 15.473 17.4841 15.473H16.5988C16.3913 15.473 16.24 15.2767 16.2927 15.0761L16.4083 14.636C16.4448 14.4969 16.5706 14.3999 16.7144 14.3999H17.2615H20.6685C20.8776 14.3999 21.0292 14.599 20.9736 14.8005L20.8959 15.0824C20.8581 15.2196 20.7332 15.3147 20.5908 15.3147H19.7529C19.7794 15.3531 19.8044 15.3927 19.828 15.4334C19.9604 15.6563 20.0485 15.9101 20.0923 16.195H20.7691Z" fill="#FFF000"/>
</g>
</g>
</g>
</g>
</g>
</g>
</svg>
