<svg width="134" height="28" viewBox="0 0 134 28" fill="none" xmlns="http://www.w3.org/2000/svg">
<g id="Clip path group">
<mask id="mask0_35_1129" style="mask-type:luminance" maskUnits="userSpaceOnUse" x="0" y="0" width="134" height="28">
<g id="clip0_34_865">
<path id="Vector" d="M134 0H0V27.2275H134V0Z" fill="white"/>
</g>
</mask>
<g mask="url(#mask0_35_1129)">
<g id="Group">
<g id="Clip path group_2">
<mask id="mask1_35_1129" style="mask-type:luminance" maskUnits="userSpaceOnUse" x="0" y="0" width="28" height="28">
<g id="clip1_34_865">
<path id="Vector_2" d="M27.2275 0H0V27.2275H27.2275V0Z" fill="white"/>
</g>
</mask>
<g mask="url(#mask1_35_1129)">
<g id="Group_2">
<path id="Vector_3" d="M4.76151 21.1813C5.15839 21.6662 5.16341 22.3812 4.72037 22.8242C4.27734 23.2673 3.55495 23.2701 3.15032 22.7918C2.8034 22.3816 2.48201 21.9524 2.18739 21.5067C1.05517 19.7936 0.31838 17.8362 0.0472731 15.777C-0.343895 12.8058 0.256276 9.78849 1.75471 7.19313C3.25313 4.59777 5.56608 2.56937 8.33481 1.42252C10.2538 0.627677 12.3173 0.287067 14.3669 0.411081C14.9006 0.443371 15.4334 0.50716 15.9624 0.602632C16.5784 0.713811 16.9368 1.34028 16.7748 1.94492C16.6128 2.5493 15.9921 2.90216 15.3744 2.802C14.7788 2.7054 14.1675 2.65518 13.5445 2.65518C11.801 2.65518 10.1493 3.04851 8.67333 3.75126C8.22107 3.96661 8.07474 4.5261 8.3252 4.9599C8.57582 5.39399 9.13011 5.53957 9.58606 5.33136C10.0659 5.11227 10.5648 4.93259 11.078 4.79506C11.9522 4.56085 12.8513 4.45333 13.7484 4.47253C14.1336 4.48077 14.5185 4.51238 14.9008 4.56736C15.5207 4.65649 15.8796 5.28545 15.7175 5.89036C15.5554 6.49501 14.9335 6.84459 14.311 6.77928C14.0591 6.75286 13.8034 6.73931 13.5445 6.73931C11.5396 6.73931 9.72431 7.55198 8.41039 8.86591C8.346 8.9303 8.2829 8.99582 8.22112 9.06243C7.01889 10.358 6.28383 12.0932 6.28383 14C6.28383 14.2589 6.29738 14.5146 6.32381 14.7665C6.38912 15.389 6.03956 16.0109 5.43496 16.1729C4.83001 16.335 4.20107 15.976 4.11191 15.3561C4.05692 14.9737 4.02524 14.5888 4.01701 14.2039C3.99781 13.3068 4.10532 12.4076 4.33954 11.5335C4.69398 10.2108 5.32835 8.98344 6.19575 7.93283C6.51487 7.5463 6.51869 6.97418 6.16426 6.61975C5.80983 6.26532 5.23208 6.26312 4.90693 6.64458C3.21871 8.62516 2.19969 11.1936 2.19969 14C2.19969 16.7249 3.16037 19.2254 4.76151 21.1813Z" fill="#035E5D"/>
<path id="Vector_4" d="M4.76151 21.1813C5.15839 21.6662 5.16341 22.3812 4.72037 22.8242C4.27734 23.2673 3.55495 23.2701 3.15032 22.7918C2.8034 22.3816 2.48201 21.9524 2.18739 21.5067C1.05517 19.7936 0.31838 17.8362 0.0472731 15.777C-0.343895 12.8058 0.256276 9.78849 1.75471 7.19313C3.25313 4.59777 5.56608 2.56937 8.33481 1.42252C10.2538 0.627677 12.3173 0.287067 14.3669 0.411081C14.9006 0.443371 15.4334 0.50716 15.9624 0.602632C16.5784 0.713811 16.9368 1.34028 16.7748 1.94492C16.6128 2.5493 15.9921 2.90216 15.3744 2.802C14.7788 2.7054 14.1675 2.65518 13.5445 2.65518C11.801 2.65518 10.1493 3.04851 8.67333 3.75126C8.22107 3.96661 8.07474 4.5261 8.3252 4.9599C8.57582 5.39399 9.13011 5.53957 9.58606 5.33136C10.0659 5.11227 10.5648 4.93259 11.078 4.79506C11.9522 4.56085 12.8513 4.45333 13.7484 4.47253C14.1336 4.48077 14.5185 4.51238 14.9008 4.56736C15.5207 4.65649 15.8796 5.28545 15.7175 5.89036C15.5554 6.49501 14.9335 6.84459 14.311 6.77928C14.0591 6.75286 13.8034 6.73931 13.5445 6.73931C11.5396 6.73931 9.72431 7.55198 8.41039 8.86591C8.346 8.9303 8.2829 8.99582 8.22112 9.06243C7.01889 10.358 6.28383 12.0932 6.28383 14C6.28383 14.2589 6.29738 14.5146 6.32381 14.7665C6.38912 15.389 6.03956 16.0109 5.43496 16.1729C4.83001 16.335 4.20107 15.976 4.11191 15.3561C4.05692 14.9737 4.02524 14.5888 4.01701 14.2039C3.99781 13.3068 4.10532 12.4076 4.33954 11.5335C4.69398 10.2108 5.32835 8.98344 6.19575 7.93283C6.51487 7.5463 6.51869 6.97418 6.16426 6.61975C5.80983 6.26532 5.23208 6.26312 4.90693 6.64458C3.21871 8.62516 2.19969 11.1936 2.19969 14C2.19969 16.7249 3.16037 19.2254 4.76151 21.1813Z" fill="url(#paint0_linear_35_1129)"/>
<path id="Vector_5" d="M19.7844 3.1923C19.4715 3.73434 19.6609 4.42302 20.1687 4.78887C21.9622 6.08093 23.3631 7.88388 24.1582 9.98455C24.3798 10.5699 24.9958 10.9317 25.6004 10.7697C26.2046 10.6078 26.5678 9.98453 26.3562 9.39579C26.1742 8.8892 25.9629 8.39577 25.7242 7.9177C24.946 6.35952 23.8756 4.96458 22.572 3.80965C22.1725 3.45576 21.7508 3.12421 21.3089 2.81744C20.7944 2.46023 20.0976 2.64987 19.7844 3.1923Z" fill="#035E5D"/>
<path id="Vector_6" d="M19.7844 3.1923C19.4715 3.73434 19.6609 4.42302 20.1687 4.78887C21.9622 6.08093 23.3631 7.88388 24.1582 9.98455C24.3798 10.5699 24.9958 10.9317 25.6004 10.7697C26.2046 10.6078 26.5678 9.98453 26.3562 9.39579C26.1742 8.8892 25.9629 8.39577 25.7242 7.9177C24.946 6.35952 23.8756 4.96458 22.572 3.80965C22.1725 3.45576 21.7508 3.12421 21.3089 2.81744C20.7944 2.46023 20.0976 2.64987 19.7844 3.1923Z" fill="url(#paint1_linear_35_1129)"/>
<path id="Vector_7" d="M26.0238 14C26.6503 14 27.1632 14.5088 27.111 15.1332C27.0664 15.668 26.9902 16.1988 26.8832 16.7228C26.5913 18.1529 26.0701 19.5326 25.3344 20.8069C24.1395 22.8765 22.4209 24.595 20.3514 25.7899C18.2818 26.9848 15.9342 27.6138 13.5445 27.6138C12.0731 27.6138 10.6176 27.3753 9.23313 26.9131C8.72538 26.7436 8.22719 26.5439 7.74128 26.315C7.17523 26.0482 6.99126 25.3506 7.30414 24.8087C7.61722 24.2664 8.3089 24.0867 8.87955 24.3444C10.0413 24.8691 11.3072 25.2039 12.6377 25.3091C13.1374 25.3486 13.5444 24.9385 13.5444 24.4372C13.5444 23.936 13.1371 23.5341 12.6382 23.4864C11.2819 23.3569 9.96555 22.9376 8.77958 22.2529C7.99588 21.8004 7.28407 21.2407 6.66331 20.5928C6.39685 20.3146 6.14717 20.0203 5.91577 19.7112C5.54029 19.2097 5.73135 18.5109 6.27393 18.1976C6.81616 17.8845 7.50328 18.0771 7.89711 18.5638C9.21538 20.193 11.2243 21.2403 13.4786 21.2604H13.4831L13.4979 21.2605C13.5033 21.2606 13.5087 21.2606 13.5141 21.2606C13.5186 21.2606 13.5232 21.2606 13.5278 21.2606C13.5333 21.2607 13.5389 21.2607 13.5444 21.2607C15.8254 21.2607 17.8608 20.2088 19.1919 18.5637C19.5856 18.0771 20.2726 17.8845 20.8148 18.1975C21.3574 18.5108 21.5483 19.2097 21.1728 19.7112C20.9413 20.0204 20.6916 20.315 20.4255 20.5928C19.8047 21.2407 19.0929 21.8004 18.3092 22.2529C17.849 22.5186 17.3692 22.7443 16.875 22.9286C16.4054 23.1038 16.1165 23.599 16.2462 24.0832C16.3759 24.5672 16.8754 24.8596 17.3474 24.6917C21.4017 23.2495 24.3937 19.5667 24.8334 15.1332C24.8952 14.5097 25.3972 14 26.0238 14Z" fill="#035E5D"/>
<path id="Vector_8" d="M26.0238 14C26.6503 14 27.1632 14.5088 27.111 15.1332C27.0664 15.668 26.9902 16.1988 26.8832 16.7228C26.5913 18.1529 26.0701 19.5326 25.3344 20.8069C24.1395 22.8765 22.4209 24.595 20.3514 25.7899C18.2818 26.9848 15.9342 27.6138 13.5445 27.6138C12.0731 27.6138 10.6176 27.3753 9.23313 26.9131C8.72538 26.7436 8.22719 26.5439 7.74128 26.315C7.17523 26.0482 6.99126 25.3506 7.30414 24.8087C7.61722 24.2664 8.3089 24.0867 8.87955 24.3444C10.0413 24.8691 11.3072 25.2039 12.6377 25.3091C13.1374 25.3486 13.5444 24.9385 13.5444 24.4372C13.5444 23.936 13.1371 23.5341 12.6382 23.4864C11.2819 23.3569 9.96555 22.9376 8.77958 22.2529C7.99588 21.8004 7.28407 21.2407 6.66331 20.5928C6.39685 20.3146 6.14717 20.0203 5.91577 19.7112C5.54029 19.2097 5.73135 18.5109 6.27393 18.1976C6.81616 17.8845 7.50328 18.0771 7.89711 18.5638C9.21538 20.193 11.2243 21.2403 13.4786 21.2604H13.4831L13.4979 21.2605C13.5033 21.2606 13.5087 21.2606 13.5141 21.2606C13.5186 21.2606 13.5232 21.2606 13.5278 21.2606C13.5333 21.2607 13.5389 21.2607 13.5444 21.2607C15.8254 21.2607 17.8608 20.2088 19.1919 18.5637C19.5856 18.0771 20.2726 17.8845 20.8148 18.1975C21.3574 18.5108 21.5483 19.2097 21.1728 19.7112C20.9413 20.0204 20.6916 20.315 20.4255 20.5928C19.8047 21.2407 19.0929 21.8004 18.3092 22.2529C17.849 22.5186 17.3692 22.7443 16.875 22.9286C16.4054 23.1038 16.1165 23.599 16.2462 24.0832C16.3759 24.5672 16.8754 24.8596 17.3474 24.6917C21.4017 23.2495 24.3937 19.5667 24.8334 15.1332C24.8952 14.5097 25.3972 14 26.0238 14Z" fill="url(#paint2_linear_35_1129)"/>
<path id="Vector_9" d="M20.8051 13.9999C20.8051 13.0804 20.6342 12.2008 20.3224 11.3912C20.0973 10.8067 20.2734 10.1149 20.8158 9.80174C21.3579 9.48878 22.0579 9.67254 22.3044 10.2479C22.4568 10.6038 22.587 10.9676 22.6945 11.3371C22.9653 12.2678 23.0926 13.2347 23.0719 14.2038C23.0637 14.5883 23.0321 14.9731 22.9771 15.3562C22.8879 15.9761 22.2589 16.3349 21.654 16.1729C21.0494 16.0108 20.6998 15.3889 20.7651 14.7664C20.7916 14.5145 20.8051 14.2588 20.8051 13.9999Z" fill="#035E5D"/>
<path id="Vector_10" d="M20.8051 13.9999C20.8051 13.0804 20.6342 12.2008 20.3224 11.3912C20.0973 10.8067 20.2734 10.1149 20.8158 9.80174C21.3579 9.48878 22.0579 9.67254 22.3044 10.2479C22.4568 10.6038 22.587 10.9676 22.6945 11.3371C22.9653 12.2678 23.0926 13.2347 23.0719 14.2038C23.0637 14.5883 23.0321 14.9731 22.9771 15.3562C22.8879 15.9761 22.2589 16.3349 21.654 16.1729C21.0494 16.0108 20.6998 15.3889 20.7651 14.7664C20.7916 14.5145 20.8051 14.2588 20.8051 13.9999Z" fill="url(#paint3_linear_35_1129)"/>
<path id="Vector_11" d="M17.6505 6.88812C17.3881 7.34264 17.5495 7.92007 17.9656 8.23993C18.382 8.56 18.9796 8.56474 19.351 8.19338L19.5575 7.98687C19.9517 7.59269 19.9343 6.94844 19.5195 6.57604C19.4695 6.53579 19.4191 6.49604 19.3682 6.4568C19.3058 6.4086 19.2428 6.36117 19.1792 6.31453C18.7066 6.00621 18.0721 6.15781 17.79 6.64645L17.6505 6.88812Z" fill="#035E5D"/>
<path id="Vector_12" d="M17.6505 6.88812C17.3881 7.34264 17.5495 7.92007 17.9656 8.23993C18.382 8.56 18.9796 8.56474 19.351 8.19338L19.5575 7.98687C19.9517 7.59269 19.9343 6.94844 19.5195 6.57604C19.4695 6.53579 19.4191 6.49604 19.3682 6.4568C19.3058 6.4086 19.2428 6.36117 19.1792 6.31453C18.7066 6.00621 18.0721 6.15781 17.79 6.64645L17.6505 6.88812Z" fill="url(#paint4_linear_35_1129)"/>
<path id="Vector_13" d="M13.5445 19.4455C16.5519 19.4455 18.99 17.0075 18.99 14C18.99 10.9925 16.5519 8.55444 13.5445 8.55444C10.537 8.55444 8.099 10.9925 8.099 14C8.099 17.0075 10.537 19.4455 13.5445 19.4455Z" fill="#035E5D"/>
<path id="Vector_14" d="M13.5445 19.4455C16.5519 19.4455 18.99 17.0075 18.99 14C18.99 10.9925 16.5519 8.55444 13.5445 8.55444C10.537 8.55444 8.099 10.9925 8.099 14C8.099 17.0075 10.537 19.4455 13.5445 19.4455Z" fill="url(#paint5_linear_35_1129)"/>
<path id="Vector_15" d="M15.1521 12.6349C15.2703 12.6349 15.3562 12.7471 15.3254 12.8612L15.2473 13.1499C15.2191 13.2543 15.1244 13.3268 15.0163 13.3268H14.6398C14.6147 13.497 14.5706 13.654 14.5076 13.798C14.4054 14.0349 14.2396 14.2281 14.0102 14.3778C13.7808 14.5274 13.4791 14.6271 13.1051 14.677L13.941 15.6737L14.359 16.172L14.5679 16.4212L14.6724 16.5458C14.7311 16.616 14.6812 16.7228 14.5897 16.7228H13.7471C13.6768 16.7228 13.61 16.6918 13.5645 16.6381L11.9047 14.6787C11.8321 14.593 11.792 14.4845 11.7913 14.3722L11.7901 14.1885C11.7893 14.0557 11.8967 13.9476 12.0295 13.9476H12.6787C12.8957 13.9476 13.0739 13.9078 13.2136 13.828C13.3557 13.7457 13.4617 13.6347 13.5315 13.4951C13.5592 13.4416 13.5816 13.3855 13.5987 13.3268H11.9982C11.8401 13.3268 11.7254 13.1762 11.7674 13.0238L11.8262 12.8106C11.8548 12.7068 11.9492 12.6349 12.0569 12.6349H13.5802C13.5692 12.6027 13.5567 12.5716 13.5427 12.5414C13.4779 12.3993 13.3744 12.2883 13.2323 12.2085C13.0901 12.1287 12.9019 12.0888 12.6675 12.0888H11.998C11.8411 12.0888 11.7266 11.9404 11.7665 11.7887L11.8539 11.4558C11.8815 11.3506 11.9766 11.2773 12.0854 11.2773H12.4992H15.076C15.2341 11.2773 15.3488 11.4278 15.3068 11.5802L15.248 11.7934C15.2194 11.8972 15.1249 11.9692 15.0172 11.9692H14.3835C14.4036 11.9982 14.4225 12.0281 14.4403 12.0589C14.5404 12.2275 14.607 12.4194 14.6402 12.6349H15.1521Z" fill="#035E5D"/>
</g>
</g>
</g>
<path id="Vector_16" d="M39.2521 20.4206C35.197 20.4206 32.3326 17.6688 32.3326 13.6137V8.06895C32.3326 7.54964 32.7536 7.12866 33.2729 7.12866H34.8843C35.4036 7.12866 35.8245 7.54965 35.8245 8.06895V13.6137C35.8245 15.6091 37.3211 17.17 39.3165 17.17C41.3763 17.17 42.8084 15.6091 42.8084 13.6137V8.06895C42.8084 7.54964 43.2294 7.12866 43.7487 7.12866H45.3601C45.8794 7.12866 46.3004 7.54965 46.3004 8.06895V13.6137C46.3004 17.6688 42.8084 20.4206 39.2521 20.4206Z" fill="url(#paint6_linear_35_1129)"/>
<path id="Vector_17" d="M48.8499 20.0988C48.3306 20.0988 47.9097 19.6778 47.9097 19.1585V13.6138C47.9097 9.5586 51.4016 6.80688 54.9579 6.80688C59.0131 6.80688 61.8774 9.5586 61.8774 13.6138V19.1585C61.8774 19.6778 61.4564 20.0988 60.9371 20.0988H59.3258C58.8065 20.0988 58.3855 19.6778 58.3855 19.1585V13.6138C58.3855 11.554 56.9533 10.0575 54.8935 10.0575C52.8981 10.0575 51.4016 11.554 51.4016 13.6138V19.1585C51.4016 19.6778 50.9806 20.0988 50.4613 20.0988H48.8499Z" fill="url(#paint7_linear_35_1129)"/>
<path id="Vector_18" d="M64.4268 20.0988C63.9075 20.0988 63.4865 19.6778 63.4865 19.1585V13.6138C63.4865 9.5586 66.9783 6.80688 70.5346 6.80688C72.7875 6.80688 74.5899 7.61148 75.8451 8.99538C77.1485 7.62757 79.0956 6.80688 81.0267 6.80688C85.0818 6.80688 87.9461 9.5586 87.9461 13.6138V19.1585C87.9461 19.6778 87.5251 20.0988 87.0058 20.0988H85.3945C84.8752 20.0988 84.4542 19.6778 84.4542 19.1585V13.6138C84.4542 11.554 82.9577 10.0575 80.9623 10.0575C78.9025 10.0575 77.4703 11.554 77.4703 13.6138V19.1585C77.4703 19.6778 77.0493 20.0988 76.53 20.0988H74.9187C74.3994 20.0988 73.9784 19.6778 73.9784 19.1585V13.6138C73.9784 11.554 72.5462 10.0575 70.4865 10.0575C68.4911 10.0575 66.9944 11.554 66.9944 13.6138V19.1585C66.9944 19.6778 66.5734 20.0988 66.0541 20.0988H64.4268Z" fill="url(#paint8_linear_35_1129)"/>
<path id="Vector_19" d="M96.2336 20.4206C92.3072 20.4206 89.5554 17.6689 89.5554 13.6138C89.5554 9.86434 92.806 6.80688 96.5393 6.80688C100.594 6.80688 103.523 9.5586 103.523 13.6138V19.1585C103.523 19.6778 103.102 20.0988 102.583 20.0988H101.036C100.517 20.0988 100.096 19.6778 100.096 19.1585V18.9724C99.291 19.8574 97.8589 20.4206 96.2336 20.4206ZM96.5554 17.1701C98.6152 17.1701 100.047 15.6092 100.047 13.6138C100.047 11.554 98.6152 10.0575 96.5554 10.0575C94.56 10.0575 93.0635 11.554 93.0635 13.6138C93.0635 15.6092 94.56 17.1701 96.5554 17.1701Z" fill="url(#paint9_linear_35_1129)"/>
<path id="Vector_20" d="M106.071 20.0987C105.552 20.0987 105.131 19.6777 105.131 19.1584V17.6704C105.131 17.3938 105.253 17.1313 105.464 16.9527L113.612 10.0574H106.249C105.729 10.0574 105.308 9.6364 105.308 9.11709V8.06894C105.308 7.54964 105.729 7.12866 106.249 7.12866H117.161C117.68 7.12866 118.101 7.54964 118.101 8.06894V9.4951C118.101 9.77022 117.981 10.0315 117.772 10.2102L109.621 17.17H117.483C118.002 17.17 118.423 17.591 118.423 18.1103V19.1584C118.423 19.6777 118.002 20.0987 117.483 20.0987H106.071Z" fill="url(#paint10_linear_35_1129)"/>
<path id="Vector_21" d="M127.016 20.4206C122.961 20.4206 120.032 17.6689 120.032 13.6138C120.032 9.86435 123.283 6.80688 127.016 6.80688C131.071 6.80688 133.759 9.3655 134 13.6138V13.8643C134 14.3836 133.579 14.8046 133.06 14.8046H123.46C123.894 16.3655 125.262 17.4275 127.016 17.4275C127.836 17.4275 128.392 17.2655 128.994 16.8358C129.413 16.5366 129.992 16.5341 130.351 16.9037L131.178 17.7562C131.538 18.1266 131.535 18.7236 131.123 19.0351C129.97 19.9079 128.553 20.4206 127.016 20.4206ZM123.524 12.1172H130.572C130.074 10.6207 128.818 9.62297 127.016 9.62297C125.262 9.62297 124.023 10.685 123.524 12.1172Z" fill="url(#paint11_linear_35_1129)"/>
</g>
</g>
</g>
<defs>
<linearGradient id="paint0_linear_35_1129" x1="-18.5612" y1="14" x2="43.6991" y2="14" gradientUnits="userSpaceOnUse">
<stop offset="0.12976" stop-color="#CCFD62"/>
<stop offset="0.770345" stop-color="#FFF000"/>
</linearGradient>
<linearGradient id="paint1_linear_35_1129" x1="-18.5612" y1="14" x2="43.6991" y2="14" gradientUnits="userSpaceOnUse">
<stop offset="0.12976" stop-color="#CCFD62"/>
<stop offset="0.770345" stop-color="#FFF000"/>
</linearGradient>
<linearGradient id="paint2_linear_35_1129" x1="-18.5613" y1="14" x2="43.699" y2="14" gradientUnits="userSpaceOnUse">
<stop offset="0.12976" stop-color="#CCFD62"/>
<stop offset="0.770345" stop-color="#FFF000"/>
</linearGradient>
<linearGradient id="paint3_linear_35_1129" x1="-18.5613" y1="13.9999" x2="43.699" y2="13.9999" gradientUnits="userSpaceOnUse">
<stop offset="0.12976" stop-color="#CCFD62"/>
<stop offset="0.770345" stop-color="#FFF000"/>
</linearGradient>
<linearGradient id="paint4_linear_35_1129" x1="-18.5613" y1="13.9999" x2="43.6991" y2="13.9999" gradientUnits="userSpaceOnUse">
<stop offset="0.12976" stop-color="#CCFD62"/>
<stop offset="0.770345" stop-color="#FFF000"/>
</linearGradient>
<linearGradient id="paint5_linear_35_1129" x1="-18.5613" y1="14" x2="43.699" y2="14" gradientUnits="userSpaceOnUse">
<stop offset="0.12976" stop-color="#CCFD62"/>
<stop offset="0.770345" stop-color="#FFF000"/>
</linearGradient>
<linearGradient id="paint6_linear_35_1129" x1="10.5306" y1="13.6413" x2="85.8642" y2="-57.906" gradientUnits="userSpaceOnUse">
<stop offset="0.0306645" stop-color="#FFF000"/>
<stop offset="0.796027" stop-color="#CCFD62"/>
</linearGradient>
<linearGradient id="paint7_linear_35_1129" x1="10.5307" y1="13.6414" x2="85.8643" y2="-57.9059" gradientUnits="userSpaceOnUse">
<stop offset="0.0306645" stop-color="#FFF000"/>
<stop offset="0.796027" stop-color="#CCFD62"/>
</linearGradient>
<linearGradient id="paint8_linear_35_1129" x1="10.5307" y1="13.6414" x2="85.8643" y2="-57.9059" gradientUnits="userSpaceOnUse">
<stop offset="0.0306645" stop-color="#FFF000"/>
<stop offset="0.796027" stop-color="#CCFD62"/>
</linearGradient>
<linearGradient id="paint9_linear_35_1129" x1="10.5307" y1="13.6414" x2="85.8643" y2="-57.9059" gradientUnits="userSpaceOnUse">
<stop offset="0.0306645" stop-color="#FFF000"/>
<stop offset="0.796027" stop-color="#CCFD62"/>
</linearGradient>
<linearGradient id="paint10_linear_35_1129" x1="10.5307" y1="13.6413" x2="85.8643" y2="-57.906" gradientUnits="userSpaceOnUse">
<stop offset="0.0306645" stop-color="#FFF000"/>
<stop offset="0.796027" stop-color="#CCFD62"/>
</linearGradient>
<linearGradient id="paint11_linear_35_1129" x1="10.5307" y1="13.6414" x2="85.8643" y2="-57.9059" gradientUnits="userSpaceOnUse">
<stop offset="0.0306645" stop-color="#FFF000"/>
<stop offset="0.796027" stop-color="#CCFD62"/>
</linearGradient>
</defs>
</svg>
