<svg width="40" height="40" viewBox="0 0 40 40" fill="none" xmlns="http://www.w3.org/2000/svg">
<rect width="40" height="40" rx="20" fill="#035E5D"/>
<mask id="mask0_37_1227" style="mask-type:alpha" maskUnits="userSpaceOnUse" x="7" y="7" width="26" height="26">
<rect x="7.5" y="7.5" width="25" height="25" fill="#D9D9D9"/>
</mask>
<g mask="url(#mask0_37_1227)">
<path d="M19.9993 31.4582C18.0549 31.4582 16.2667 31.0155 14.6348 30.13C13.0028 29.2446 11.666 28.0641 10.6243 26.5884V29.3748H8.54102V23.1248H14.791V25.2082H12.2129C13.0462 26.4582 14.1443 27.4651 15.5072 28.229C16.87 28.9929 18.3674 29.3748 19.9993 29.3748C21.3014 29.3748 22.5211 29.1274 23.6582 28.6327C24.7954 28.1379 25.7849 27.4695 26.627 26.6274C27.469 25.7854 28.1374 24.7958 28.6322 23.6587C29.127 22.5215 29.3744 21.3019 29.3744 19.9998H31.4577C31.4577 21.5797 31.1582 23.0641 30.5592 24.453C29.9603 25.8419 29.14 27.0571 28.0983 28.0988C27.0566 29.1405 25.8414 29.9608 24.4525 30.5597C23.0636 31.1587 21.5792 31.4582 19.9993 31.4582ZM8.54102 19.9998C8.54102 18.42 8.84049 16.9356 9.43945 15.5467C10.0384 14.1578 10.8587 12.9425 11.9004 11.9009C12.9421 10.8592 14.1573 10.0389 15.5462 9.43994C16.9351 8.84098 18.4195 8.5415 19.9993 8.5415C21.9438 8.5415 23.732 8.98421 25.3639 9.86963C26.9959 10.755 28.3327 11.9356 29.3744 13.4113V10.6248H31.4577V16.8748H25.2077V14.7915H27.7858C26.9525 13.5415 25.8544 12.5346 24.4915 11.7707C23.1287 11.0068 21.6313 10.6248 19.9993 10.6248C18.6973 10.6248 17.4776 10.8722 16.3405 11.367C15.2033 11.8618 14.2138 12.5302 13.3717 13.3722C12.5297 14.2142 11.8613 15.2038 11.3665 16.341C10.8717 17.4781 10.6243 18.6978 10.6243 19.9998H8.54102Z" fill="white"/>
</g>
</svg>
