<svg width="32" height="32" viewBox="0 0 32 32" fill="none" xmlns="http://www.w3.org/2000/svg">
<rect width="32" height="32" rx="16" fill="#035E5D"/>
<mask id="mask0_37_1230" style="mask-type:alpha" maskUnits="userSpaceOnUse" x="6" y="6" width="20" height="20">
<rect x="6" y="6" width="20" height="20" fill="#D9D9D9"/>
</mask>
<g mask="url(#mask0_37_1230)">
<path d="M15.9999 25.1666C14.4444 25.1666 13.0138 24.8124 11.7083 24.1041C10.4027 23.3958 9.33325 22.4513 8.49992 21.2708V23.4999H6.83325V18.4999H11.8333V20.1666H9.77075C10.4374 21.1666 11.3159 21.9721 12.4062 22.5833C13.4964 23.1944 14.6944 23.4999 15.9999 23.4999C17.0416 23.4999 18.0173 23.302 18.927 22.9062C19.8367 22.5103 20.6284 21.9756 21.302 21.302C21.9756 20.6284 22.5103 19.8367 22.9062 18.927C23.302 18.0173 23.4999 17.0416 23.4999 15.9999H25.1666C25.1666 17.2638 24.927 18.4513 24.4478 19.5624C23.9687 20.6735 23.3124 21.6458 22.4791 22.4791C21.6458 23.3124 20.6735 23.9687 19.5624 24.4478C18.4513 24.927 17.2638 25.1666 15.9999 25.1666ZM6.83325 15.9999C6.83325 14.736 7.07284 13.5485 7.552 12.4374C8.03117 11.3263 8.68742 10.3541 9.52075 9.52075C10.3541 8.68742 11.3263 8.03117 12.4374 7.552C13.5485 7.07284 14.736 6.83325 15.9999 6.83325C17.5555 6.83325 18.986 7.18742 20.2916 7.89575C21.5971 8.60409 22.6666 9.54853 23.4999 10.7291V8.49992H25.1666V13.4999H20.1666V11.8333H22.2291C21.5624 10.8333 20.6839 10.0277 19.5937 9.41659C18.5034 8.80547 17.3055 8.49992 15.9999 8.49992C14.9583 8.49992 13.9826 8.69784 13.0728 9.09367C12.1631 9.4895 11.3714 10.0242 10.6978 10.6978C10.0242 11.3714 9.4895 12.1631 9.09367 13.0728C8.69784 13.9826 8.49992 14.9583 8.49992 15.9999H6.83325Z" fill="white"/>
</g>
</svg>
